<?xml version="1.0" encoding="UTF-8" standalone="no"?>
<!-- Created with Inkscape (http://www.inkscape.org/) -->

<svg
   xmlns:dc="http://purl.org/dc/elements/1.1/"
   xmlns:cc="http://creativecommons.org/ns#"
   xmlns:rdf="http://www.w3.org/1999/02/22-rdf-syntax-ns#"
   xmlns:svg="http://www.w3.org/2000/svg"
   xmlns="http://www.w3.org/2000/svg"
   xmlns:sodipodi="http://sodipodi.sourceforge.net/DTD/sodipodi-0.dtd"
   xmlns:inkscape="http://www.inkscape.org/namespaces/inkscape"
   id="svg4555"
   version="1.1"
   inkscape:version="0.91 r13725"
   xml:space="preserve"
   width="1095"
   height="520"
   viewBox="0 0 1095 520"
   sodipodi:docname="g2.svg"><metadata
     id="metadata4561"><rdf:RDF><cc:Work
         rdf:about=""><dc:format>image/svg+xml</dc:format><dc:type
           rdf:resource="http://purl.org/dc/dcmitype/StillImage" /><dc:title></dc:title></cc:Work></rdf:RDF></metadata><defs
     id="defs4559"><clipPath
       clipPathUnits="userSpaceOnUse"
       id="clipPath4571"><path
         d="m 0,2 0,4156 8750,0 L 8750,2 0,2 Z"
         id="path4573"
         inkscape:connector-curvature="0" /></clipPath></defs><sodipodi:namedview
     pagecolor="#ffffff"
     bordercolor="#666666"
     borderopacity="1"
     objecttolerance="10"
     gridtolerance="10"
     guidetolerance="10"
     inkscape:pageopacity="0"
     inkscape:pageshadow="2"
     inkscape:window-width="1276"
     inkscape:window-height="594"
     id="namedview4557"
     showgrid="false"
     inkscape:zoom="0.92214473"
     inkscape:cx="533.40243"
     inkscape:cy="303.37714"
     inkscape:window-x="0"
     inkscape:window-y="0"
     inkscape:window-maximized="0"
     inkscape:current-layer="g4565" /><g
     id="g4563"
     inkscape:groupmode="layer"
     inkscape:label="ink_ext_XXXXXX"
     transform="matrix(1.25,0,0,-1.25,0,520)"><g
       id="g4565"
       transform="scale(0.1,0.1)"><path
         d="M 3152.29,3684.42 4763.05,2654.97"
         style="fill:none;stroke:#a9a9a9;stroke-width:7.5;stroke-linecap:butt;stroke-linejoin:round;stroke-miterlimit:10;stroke-dasharray:none;stroke-opacity:1"
         id="path4575"
         inkscape:connector-curvature="0" /><g
         id="g4577"
         transform="scale(10,10)"><text
           transform="matrix(1,0,0,-1,374.393,314.187)"
           style="font-style:italic;font-variant:normal;font-size:9px;font-family:Times;-inkscape-font-specification:Times-Italic;writing-mode:lr-tb;fill:#00008b;fill-opacity:1;fill-rule:nonzero;stroke:none"
           id="text4579"><tspan
             x="0 6.4980001 8.7480001 14.247 18.747 21.249001 24.75 27.252001 29.754 34.254002 38.25"
             y="0"
             sodipodi:role="line"
             id="tspan4581">D.Patrline*</tspan></text>
</g><path
         d="m 3162.37,2512.9 1583.1,76.08"
         style="fill:none;stroke:#a9a9a9;stroke-width:7.5;stroke-linecap:butt;stroke-linejoin:round;stroke-miterlimit:10;stroke-dasharray:none;stroke-opacity:1"
         id="path4583"
         inkscape:connector-curvature="0" /><g
         id="g4585"
         transform="matrix(10,0,0,10,0,48)"><text
           transform="matrix(1,0,0,-1,376.268,252.312)"
           style="font-style:italic;font-variant:normal;font-size:9px;font-family:Times;-inkscape-font-specification:Times-Italic;writing-mode:lr-tb;fill:#00008b;fill-opacity:1;fill-rule:nonzero;stroke:none"
           id="text4587"><tspan
             x="0 6.4980001 8.7480001 14.247 18.747 21.249001 24.75 27.252001 29.754 34.254002"
             y="0"
             sodipodi:role="line"
             id="tspan4589">D.Patrline</tspan></text>
</g><path
         d="m 3050.68,2620 6.14,1012.5"
         style="fill:none;stroke:#a9a9a9;stroke-width:7.5;stroke-linecap:butt;stroke-linejoin:round;stroke-miterlimit:10;stroke-dasharray:none;stroke-opacity:1"
         id="path4591"
         inkscape:connector-curvature="0" /><g
         id="g4593"
         transform="scale(10,10)"><text
           transform="matrix(1,0,0,-1,286.251,309.843)"
           style="font-style:italic;font-variant:normal;font-size:9px;font-family:Times;-inkscape-font-specification:Times-Italic;writing-mode:lr-tb;fill:#00008b;fill-opacity:1;fill-rule:nonzero;stroke:none"
           id="text4595"><tspan
             x="0 6.4980001 8.7480001 14.247 18.747 21.249001 24.75 27.252001 29.754 34.254002"
             y="0"
             sodipodi:role="line"
             id="tspan4597">D.Patrline</tspan></text>
</g><path
         d="M 3133.67,2432.3 4743.83,985.199"
         style="fill:none;stroke:#a9a9a9;stroke-width:7.5;stroke-linecap:butt;stroke-linejoin:round;stroke-miterlimit:10;stroke-dasharray:none;stroke-opacity:1"
         id="path4599"
         inkscape:connector-curvature="0" /><g
         id="g4601"
         transform="scale(10,10)"><text
           transform="matrix(1,0,0,-1,372.501,168.093)"
           style="font-style:italic;font-variant:normal;font-size:9px;font-family:Times;-inkscape-font-specification:Times-Italic;writing-mode:lr-tb;fill:#00008b;fill-opacity:1;fill-rule:nonzero;stroke:none"
           id="text4603"><tspan
             x="0 6.4980001 8.7480001 14.247 18.747 21.249001 24.75 27.252001 29.754 34.254002 38.25"
             y="0"
             sodipodi:role="line"
             id="tspan4605">D.Patrline*</tspan></text>
</g><path
         d="m 4829.53,1022.48 26.29,1459.42"
         style="fill:none;stroke:#a9a9a9;stroke-width:7.5;stroke-linecap:butt;stroke-linejoin:round;stroke-miterlimit:10;stroke-dasharray:none;stroke-opacity:1"
         id="path4607"
         inkscape:connector-curvature="0" /><g
         id="g4609"
         transform="scale(10,10)"><text
           transform="matrix(1,0,0,-1,462.893,172.437)"
           style="font-style:italic;font-variant:normal;font-size:9px;font-family:Times;-inkscape-font-specification:Times-Italic;writing-mode:lr-tb;fill:#00008b;fill-opacity:1;fill-rule:nonzero;stroke:none"
           id="text4611"><tspan
             x="0 6.4980001 8.7480001 14.247 18.747 21.249001 24.75 27.252001 29.754 34.254002 38.25"
             y="0"
             sodipodi:role="line"
             id="tspan4613">D.Patrline*</tspan></text>
</g><path
         d="m 4871.12,3677.51 -11.9,-970.63"
         style="fill:none;stroke:#a9a9a9;stroke-width:7.5;stroke-linecap:butt;stroke-linejoin:round;stroke-miterlimit:10;stroke-dasharray:none;stroke-opacity:1"
         id="path4615"
         inkscape:connector-curvature="0" /><g
         id="g4617"
         transform="scale(10,10)"><text
           transform="matrix(1,0,0,-1,472.644,316.437)"
           style="font-style:italic;font-variant:normal;font-size:9px;font-family:Times;-inkscape-font-specification:Times-Italic;writing-mode:lr-tb;fill:#00008b;fill-opacity:1;fill-rule:nonzero;stroke:none"
           id="text4619"><tspan
             x="0 6.4980001 8.7480001 15.246 19.746 24.246"
             y="0"
             sodipodi:role="line"
             id="tspan4621">D.Gndr</tspan></text>
</g><path
         d="m 3043.06,1105 6.38,1290"
         style="fill:none;stroke:#a9a9a9;stroke-width:7.5;stroke-linecap:butt;stroke-linejoin:round;stroke-miterlimit:10;stroke-dasharray:none;stroke-opacity:1"
         id="path4623"
         inkscape:connector-curvature="0" /><g
         id="g4625"
         transform="scale(10,10)"><text
           transform="matrix(1,0,0,-1,290.752,172.218)"
           style="font-style:italic;font-variant:normal;font-size:9px;font-family:Times;-inkscape-font-specification:Times-Italic;writing-mode:lr-tb;fill:#00008b;fill-opacity:1;fill-rule:nonzero;stroke:none"
           id="text4627"><tspan
             x="0 6.4980001 8.7480001 15.246 19.746 24.246"
             y="0"
             sodipodi:role="line"
             id="tspan4629">D.Gndr</tspan></text>
</g><path
         d="m 3170,3745 0,0 c 0,62.13 -50.37,112.5 -112.5,112.5 -62.13,0 -112.5,-50.37 -112.5,-112.5 0,-62.13 50.37,-112.5 112.5,-112.5 62.13,0 112.5,50.37 112.5,112.5"
         style="fill:#66c2a5;fill-opacity:1;fill-rule:nonzero;stroke:none"
         id="path4631"
         inkscape:connector-curvature="0" /><path
         d="m 3170,3745 0,0 c 0,62.13 -50.37,112.5 -112.5,112.5 -62.13,0 -112.5,-50.37 -112.5,-112.5 0,-62.13 50.37,-112.5 112.5,-112.5 62.13,0 112.5,50.37 112.5,112.5"
         style="fill:#71ab7f;stroke:#000000;stroke-width:7.5;stroke-linecap:square;stroke-linejoin:miter;stroke-miterlimit:10;stroke-dasharray:none;stroke-opacity:1;fill-opacity:1"
         id="path4633"
         inkscape:connector-curvature="0" /><g
         id="g4635"
         transform="scale(10,10)"><text
           transform="matrix(1,0,0,-1,303.04,371.483)"
           style="font-variant:normal;font-weight:normal;font-size:9.75px;font-family:Times;-inkscape-font-specification:Times-Roman;writing-mode:lr-tb;fill:#000000;fill-opacity:1;fill-rule:nonzero;stroke:none"
           id="text4637"><tspan
             x="0"
             y="0"
             id="tspan4639">F</tspan></text>
</g><path
         d="m 4970.34,2594.38 0,0 c 0,62.13 -50.37,112.5 -112.5,112.5 -62.13,0 -112.5,-50.37 -112.5,-112.5 0,-62.13 50.37,-112.5 112.5,-112.5 62.13,0 112.5,50.37 112.5,112.5"
         style="fill:#cf948c;fill-opacity:1;fill-rule:nonzero;stroke:none"
         id="path4641"
         inkscape:connector-curvature="0" /><path
         d="m 4970.34,2594.38 0,0 c 0,62.13 -50.37,112.5 -112.5,112.5 -62.13,0 -112.5,-50.37 -112.5,-112.5 0,-62.13 50.37,-112.5 112.5,-112.5 62.13,0 112.5,50.37 112.5,112.5"
         style="fill:#57b5ed;stroke:#000000;stroke-width:7.5;stroke-linecap:square;stroke-linejoin:miter;stroke-miterlimit:10;stroke-dasharray:none;stroke-opacity:1;fill-opacity:1"
         id="path4643"
         inkscape:connector-curvature="0" /><g
         id="g4645"
         transform="scale(10,10)"><text
           transform="matrix(1,0,0,-1,482.533,256.421)"
           style="font-variant:normal;font-weight:normal;font-size:9.75px;font-family:Times;-inkscape-font-specification:Times-Roman;writing-mode:lr-tb;fill:#000000;fill-opacity:1;fill-rule:nonzero;stroke:none"
           id="text4647"><tspan
             x="0"
             y="0"
             id="tspan4649">C</tspan></text>
</g><path
         d="m 3162.5,2507.5 0,0 c 0,62.13 -50.37,112.5 -112.5,112.5 -62.13,0 -112.5,-50.37 -112.5,-112.5 0,-62.13 50.37,-112.5 112.5,-112.5 62.13,0 112.5,50.37 112.5,112.5"
         style="fill:#d58ec4;fill-opacity:1;fill-rule:nonzero;stroke:none"
         id="path4651"
         inkscape:connector-curvature="0" /><path
         d="m 3162.5,2507.5 0,0 c 0,62.13 -50.37,112.5 -112.5,112.5 -62.13,0 -112.5,-50.37 -112.5,-112.5 0,-62.13 50.37,-112.5 112.5,-112.5 62.13,0 112.5,50.37 112.5,112.5"
         style="fill:#fbbe4b;stroke:#000000;stroke-width:7.5;stroke-linecap:square;stroke-linejoin:miter;stroke-miterlimit:10;stroke-dasharray:none;stroke-opacity:1;fill-opacity:0.94117647"
         id="path4653"
         inkscape:connector-curvature="0" /><g
         id="g4655"
         transform="scale(10,10)"><text
           transform="matrix(1,0,0,-1,301.48,247.733)"
           style="font-variant:normal;font-weight:normal;font-size:9.75px;font-family:Times;-inkscape-font-specification:Times-Roman;writing-mode:lr-tb;fill:#000000;fill-opacity:1;fill-rule:nonzero;stroke:none"
           id="text4657"><tspan
             x="0"
             y="0"
             id="tspan4659">A</tspan></text>
</g><path
         d="m 4940,910 0,0 c 0,62.129 -50.37,112.5 -112.5,112.5 -62.13,0 -112.5,-50.371 -112.5,-112.5 0,-62.129 50.37,-112.5 112.5,-112.5 62.13,0 112.5,50.371 112.5,112.5"
         style="fill:#b7d84c;fill-opacity:1;fill-rule:nonzero;stroke:none"
         id="path4661"
         inkscape:connector-curvature="0" /><path
         d="m 4940,910 0,0 c 0,62.129 -50.37,112.5 -112.5,112.5 -62.13,0 -112.5,-50.371 -112.5,-112.5 0,-62.129 50.37,-112.5 112.5,-112.5 62.13,0 112.5,50.371 112.5,112.5"
         style="fill:#ff9438;stroke:#000000;stroke-width:8;stroke-linecap:square;stroke-linejoin:miter;stroke-miterlimit:10;stroke-dasharray:none;stroke-opacity:1;fill-opacity:1"
         id="path4663"
         inkscape:connector-curvature="0" /><g
         id="g4665"
         transform="scale(10,10)"><text
           transform="matrix(1,0,0,-1,479.23,87.9828)"
           style="font-variant:normal;font-weight:normal;font-size:9.75px;font-family:Times;-inkscape-font-specification:Times-Roman;writing-mode:lr-tb;fill:#000000;fill-opacity:1;fill-rule:nonzero;stroke:none"
           id="text4667"><tspan
             x="0"
             y="0"
             id="tspan4669">D</tspan></text>
</g><path
         d="m 4985,3790 0,0 c 0,62.13 -50.37,112.5 -112.5,112.5 -62.13,0 -112.5,-50.37 -112.5,-112.5 0,-62.13 50.37,-112.5 112.5,-112.5 62.13,0 112.5,50.37 112.5,112.5"
         style="fill:#efcc6b;fill-opacity:1;fill-rule:nonzero;stroke:none"
         id="path4671"
         inkscape:connector-curvature="0" /><path
         d="m 4985,3790 0,0 c 0,62.13 -50.37,112.5 -112.5,112.5 -62.13,0 -112.5,-50.37 -112.5,-112.5 0,-62.13 50.37,-112.5 112.5,-112.5 62.13,0 112.5,50.37 112.5,112.5"
         style="fill:#8980d4;stroke:#000000;stroke-width:7.5;stroke-linecap:square;stroke-linejoin:miter;stroke-miterlimit:10;stroke-dasharray:none;stroke-opacity:1;fill-opacity:1"
         id="path4673"
         inkscape:connector-curvature="0" /><g
         id="g4675"
         transform="scale(10,10)"><text
           transform="matrix(1,0,0,-1,484.271,375.983)"
           style="font-variant:normal;font-weight:normal;font-size:9.75px;font-family:Times;-inkscape-font-specification:Times-Roman;writing-mode:lr-tb;fill:#000000;fill-opacity:1;fill-rule:nonzero;stroke:none"
           id="text4677"><tspan
             x="0"
             y="0"
             id="tspan4679">E</tspan></text>
</g><path
         d="m 3155,992.5 0,0 c 0,62.13 -50.37,112.5 -112.5,112.5 -62.13,0 -112.5,-50.37 -112.5,-112.5 0,-62.129 50.37,-112.5 112.5,-112.5 62.13,0 112.5,50.371 112.5,112.5"
         style="fill:#b3b3b3;fill-opacity:1;fill-rule:nonzero;stroke:none"
         id="path4681"
         inkscape:connector-curvature="0" /><path
         d="m 3155,992.5 0,0 c 0,62.13 -50.37,112.5 -112.5,112.5 -62.13,0 -112.5,-50.37 -112.5,-112.5 0,-62.129 50.37,-112.5 112.5,-112.5 62.13,0 112.5,50.371 112.5,112.5"
         style="fill:#ed8f57;stroke:#000000;stroke-width:7.5;stroke-linecap:square;stroke-linejoin:miter;stroke-miterlimit:10;stroke-dasharray:none;stroke-opacity:1;fill-opacity:1"
         id="path4683"
         inkscape:connector-curvature="0" /><g
         id="g4685"
         transform="scale(10,10)"><text
           transform="matrix(1,0,0,-1,300.998,96.2328)"
           style="font-variant:normal;font-weight:normal;font-size:9.75px;font-family:Times;-inkscape-font-specification:Times-Roman;writing-mode:lr-tb;fill:#000000;fill-opacity:1;fill-rule:nonzero;stroke:none"
           id="text4687"><tspan
             x="0"
             y="0"
             id="tspan4689">B</tspan></text>
</g></g></g></svg>