<?xml version="1.0" encoding="UTF-8" standalone="no"?>
<!-- Created with Inkscape (http://www.inkscape.org/) -->

<svg
   xmlns:dc="http://purl.org/dc/elements/1.1/"
   xmlns:cc="http://creativecommons.org/ns#"
   xmlns:rdf="http://www.w3.org/1999/02/22-rdf-syntax-ns#"
   xmlns:svg="http://www.w3.org/2000/svg"
   xmlns="http://www.w3.org/2000/svg"
   xmlns:sodipodi="http://sodipodi.sourceforge.net/DTD/sodipodi-0.dtd"
   xmlns:inkscape="http://www.inkscape.org/namespaces/inkscape"
   id="svg5386"
   version="1.1"
   inkscape:version="0.91 r13725"
   xml:space="preserve"
   width="1291.25"
   height="631.25"
   viewBox="0 0 1291.25 631.25"
   sodipodi:docname="niblings.svg"><metadata
     id="metadata5392"><rdf:RDF><cc:Work
         rdf:about=""><dc:format>image/svg+xml</dc:format><dc:type
           rdf:resource="http://purl.org/dc/dcmitype/StillImage" /><dc:title></dc:title></cc:Work></rdf:RDF></metadata><defs
     id="defs5390"><clipPath
       clipPathUnits="userSpaceOnUse"
       id="clipPath5402"><path
         d="m 0,0 0,5048 10328,0 L 10328,0 0,0 Z"
         id="path5404"
         inkscape:connector-curvature="0" /></clipPath></defs><sodipodi:namedview
     pagecolor="#ffffff"
     bordercolor="#666666"
     borderopacity="1"
     objecttolerance="10"
     gridtolerance="10"
     guidetolerance="10"
     inkscape:pageopacity="0"
     inkscape:pageshadow="2"
     inkscape:window-width="1200"
     inkscape:window-height="575"
     id="namedview5388"
     showgrid="false"
     inkscape:zoom="0.55295257"
     inkscape:cx="647.43347"
     inkscape:cy="315.625"
     inkscape:window-x="0"
     inkscape:window-y="0"
     inkscape:window-maximized="0"
     inkscape:current-layer="g5398" /><g
     id="g5394"
     inkscape:groupmode="layer"
     inkscape:label="ink_ext_XXXXXX"
     transform="matrix(1.25,0,0,-1.25,0,631.25)"><g
       id="g5398"
       transform="scale(0.1,0.1)"><path
         d="m 6809.97,3910.09 1402.56,32.32"
         style="fill:none;stroke:#a9a9a9;stroke-width:7.5;stroke-linecap:butt;stroke-linejoin:round;stroke-miterlimit:10;stroke-dasharray:none;stroke-opacity:1"
         id="path5406"
         inkscape:connector-curvature="0" /><g
         id="g5408"
         transform="scale(10,10)"><text
           transform="matrix(1,0,0,-1,737.751,389.843)"
           style="font-style:italic;font-variant:normal;font-size:9px;font-family:Times;-inkscape-font-specification:Times-Italic;writing-mode:lr-tb;fill:#00008b;fill-opacity:1;fill-rule:nonzero;stroke:none"
           id="text5410"><tspan
             x="0 6.4980001 8.7480001 13.248 17.747999 22.247999"
             y="0"
             sodipodi:role="line"
             id="tspan5412">D.SoS*</tspan></text>
</g><path
         d="m 2081.45,1004.95 -45.4,1440.1"
         style="fill:none;stroke:#a9a9a9;stroke-width:7.5;stroke-linecap:butt;stroke-linejoin:round;stroke-miterlimit:10;stroke-dasharray:none;stroke-opacity:1"
         id="path5414"
         inkscape:connector-curvature="0" /><g
         id="g5416"
         transform="scale(10,10)"><text
           transform="matrix(1,0,0,-1,189.752,169.718)"
           style="font-style:italic;font-variant:normal;font-size:9px;font-family:Times;-inkscape-font-specification:Times-Italic;writing-mode:lr-tb;fill:#00008b;fill-opacity:1;fill-rule:nonzero;stroke:none"
           id="text5418"><tspan
             x="0 6.4980001 8.7480001 15.246 19.746 24.246 27.747"
             y="0"
             sodipodi:role="line"
             id="tspan5420">D.Gndr*</tspan></text>
</g><path
         d="m 6832.08,3062.18 1425.84,123.14"
         style="fill:none;stroke:#a9a9a9;stroke-width:7.5;stroke-linecap:butt;stroke-linejoin:round;stroke-miterlimit:10;stroke-dasharray:none;stroke-opacity:1"
         id="path5422"
         inkscape:connector-curvature="0" /><g
         id="g5424"
         transform="scale(10,10)"><text
           transform="matrix(1,0,0,-1,741.126,309.593)"
           style="font-style:italic;font-variant:normal;font-size:9px;font-family:Times;-inkscape-font-specification:Times-Italic;writing-mode:lr-tb;fill:#00008b;fill-opacity:1;fill-rule:nonzero;stroke:none"
           id="text5426"><tspan
             x="0 6.4980001 8.7480001 13.248 17.747999 22.247999"
             y="0"
             sodipodi:role="line"
             id="tspan5428">D.SoS*</tspan></text>
</g><path
         d="M 6813.54,2990 8276.46,2012.5"
         style="fill:none;stroke:#a9a9a9;stroke-width:7.5;stroke-linecap:butt;stroke-linejoin:round;stroke-miterlimit:10;stroke-dasharray:none;stroke-opacity:1"
         id="path5430"
         inkscape:connector-curvature="0" /><g
         id="g5432"
         transform="scale(10,10)"><text
           transform="matrix(1,0,0,-1,741.126,247.343)"
           style="font-style:italic;font-variant:normal;font-size:9px;font-family:Times;-inkscape-font-specification:Times-Italic;writing-mode:lr-tb;fill:#00008b;fill-opacity:1;fill-rule:nonzero;stroke:none"
           id="text5434"><tspan
             x="0 6.4980001 8.7480001 13.248 17.747999 22.247999"
             y="0"
             sodipodi:role="line"
             id="tspan5436">D.SoS*</tspan></text>
</g><path
         d="m 5392.5,3907.5 1192.5,0"
         style="fill:none;stroke:#a9a9a9;stroke-width:7.5;stroke-linecap:butt;stroke-linejoin:round;stroke-miterlimit:10;stroke-dasharray:none;stroke-opacity:1"
         id="path5438"
         inkscape:connector-curvature="0" /><g
         id="g5440"
         transform="scale(10,10)"><text
           transform="matrix(1,0,0,-1,586.248,387.968)"
           style="font-style:italic;font-variant:normal;font-size:9px;font-family:Times;-inkscape-font-specification:Times-Italic;writing-mode:lr-tb;fill:#00008b;fill-opacity:1;fill-rule:nonzero;stroke:none"
           id="text5442"><tspan
             x="0 6.4980001 8.7480001 13.752 16.254 20.754"
             y="0"
             sodipodi:role="line"
             id="tspan5444">D.Lin*</tspan></text>
</g><path
         d="m 5274.98,4019.89 -27.46,615.22"
         style="fill:none;stroke:#a9a9a9;stroke-width:7.5;stroke-linecap:butt;stroke-linejoin:round;stroke-miterlimit:10;stroke-dasharray:none;stroke-opacity:1"
         id="path5446"
         inkscape:connector-curvature="0" /><g
         id="g5448"
         transform="scale(10,10)"><text
           transform="matrix(1,0,0,-1,505.75,429.968)"
           style="font-style:italic;font-variant:normal;font-size:9px;font-family:Times;-inkscape-font-specification:Times-Italic;writing-mode:lr-tb;fill:#00008b;fill-opacity:1;fill-rule:nonzero;stroke:none"
           id="text5450"><tspan
             x="0 6.4980001 8.7480001 14.751 19.250999 23.247 29.25 31.752001 36.251999"
             y="0"
             sodipodi:role="line"
             id="tspan5452">D.NucKin*</tspan></text>
</g><path
         d="M 5235.02,957.672 2197.48,894.828"
         style="fill:none;stroke:#a9a9a9;stroke-width:7.5;stroke-linecap:butt;stroke-linejoin:round;stroke-miterlimit:10;stroke-dasharray:none;stroke-opacity:1"
         id="path5454"
         inkscape:connector-curvature="0" /><g
         id="g5456"
         transform="scale(10,10)"><text
           transform="matrix(1,0,0,-1,353.5,89.843)"
           style="font-style:italic;font-variant:normal;font-size:9px;font-family:Times;-inkscape-font-specification:Times-Italic;writing-mode:lr-tb;fill:#00008b;fill-opacity:1;fill-rule:nonzero;stroke:none"
           id="text5458"><tspan
             x="0 6.4980001 8.7480001 14.751 19.250999 23.247 29.25 31.752001"
             y="0"
             sodipodi:role="line"
             id="tspan5460">D.NucKin</tspan></text>
</g><path
         d="m 2257.26,4604.86 1147.98,75.28"
         style="fill:none;stroke:#a9a9a9;stroke-width:7.5;stroke-linecap:butt;stroke-linejoin:round;stroke-miterlimit:10;stroke-dasharray:none;stroke-opacity:1"
         id="path5462"
         inkscape:connector-curvature="0" /><g
         id="g5464"
         transform="scale(10,10)"><text
           transform="matrix(1,0,0,-1,269.252,461.468)"
           style="font-style:italic;font-variant:normal;font-size:9px;font-family:Times;-inkscape-font-specification:Times-Italic;writing-mode:lr-tb;fill:#00008b;fill-opacity:1;fill-rule:nonzero;stroke:none"
           id="text5466"><tspan
             x="0 6.4980001 8.7480001 15.246 19.746 24.246"
             y="0"
             sodipodi:role="line"
             id="tspan5468">D.Gndr</tspan></text>
</g><path
         d="m 3467.17,3040.75 -1249.34,1471"
         style="fill:none;stroke:#a9a9a9;stroke-width:7.5;stroke-linecap:butt;stroke-linejoin:round;stroke-miterlimit:10;stroke-dasharray:none;stroke-opacity:1"
         id="path5470"
         inkscape:connector-curvature="0" /><g
         id="g5472"
         transform="scale(10,10)"><text
           transform="matrix(1,0,0,-1,270.377,374.843)"
           style="font-style:italic;font-variant:normal;font-size:9px;font-family:Times;-inkscape-font-specification:Times-Italic;writing-mode:lr-tb;fill:#00008b;fill-opacity:1;fill-rule:nonzero;stroke:none"
           id="text5474"><tspan
             x="0 6.4980001 8.7480001 15.246 19.746 24.246"
             y="0"
             sodipodi:role="line"
             id="tspan5476">D.Gndr</tspan></text>
</g><path
         d="m 3540,3067.5 0,667.5"
         style="fill:none;stroke:#a9a9a9;stroke-width:7.5;stroke-linecap:butt;stroke-linejoin:round;stroke-miterlimit:10;stroke-dasharray:none;stroke-opacity:1"
         id="path5478"
         inkscape:connector-curvature="0" /><g
         id="g5480"
         transform="scale(10,10)"><text
           transform="matrix(1,0,0,-1,340.127,337.343)"
           style="font-style:italic;font-variant:normal;font-size:9px;font-family:Times;-inkscape-font-specification:Times-Italic;writing-mode:lr-tb;fill:#00008b;fill-opacity:1;fill-rule:nonzero;stroke:none"
           id="text5482"><tspan
             x="0 6.4980001 8.7480001 15.246 19.746 24.246"
             y="0"
             sodipodi:role="line"
             id="tspan5484">D.Gndr</tspan></text>
</g><path
         d="M 3431.22,2926.32 2141.28,2586.18"
         style="fill:none;stroke:#a9a9a9;stroke-width:7.5;stroke-linecap:butt;stroke-linejoin:round;stroke-miterlimit:10;stroke-dasharray:none;stroke-opacity:1"
         id="path5486"
         inkscape:connector-curvature="0" /><g
         id="g5488"
         transform="scale(10,10)"><text
           transform="matrix(1,0,0,-1,264.752,272.843)"
           style="font-style:italic;font-variant:normal;font-size:9px;font-family:Times;-inkscape-font-specification:Times-Italic;writing-mode:lr-tb;fill:#00008b;fill-opacity:1;fill-rule:nonzero;stroke:none"
           id="text5490"><tspan
             x="0 6.4980001 8.7480001 15.246 19.746 24.246"
             y="0"
             sodipodi:role="line"
             id="tspan5492">D.Gndr</tspan></text>
</g><path
         d="m 3424.75,4623.83 -1202,-825.16"
         style="fill:none;stroke:#a9a9a9;stroke-width:7.5;stroke-linecap:butt;stroke-linejoin:round;stroke-miterlimit:10;stroke-dasharray:none;stroke-opacity:1"
         id="path5494"
         inkscape:connector-curvature="0" /><g
         id="g5496"
         transform="scale(10,10)"><text
           transform="matrix(1,0,0,-1,271.998,418.343)"
           style="font-style:italic;font-variant:normal;font-size:9px;font-family:Times;-inkscape-font-specification:Times-Italic;writing-mode:lr-tb;fill:#00008b;fill-opacity:1;fill-rule:nonzero;stroke:none"
           id="text5498"><tspan
             x="0 6.4980001 8.7480001 13.752 16.254"
             y="0"
             sodipodi:role="line"
             id="tspan5500">D.Lin</tspan></text>
</g><path
         d="m 3536.99,3959.96 -16.48,615.08"
         style="fill:none;stroke:#a9a9a9;stroke-width:7.5;stroke-linecap:butt;stroke-linejoin:round;stroke-miterlimit:10;stroke-dasharray:none;stroke-opacity:1"
         id="path5502"
         inkscape:connector-curvature="0" /><g
         id="g5504"
         transform="scale(10,10)"><text
           transform="matrix(1,0,0,-1,339.002,423.968)"
           style="font-style:italic;font-variant:normal;font-size:9px;font-family:Times;-inkscape-font-specification:Times-Italic;writing-mode:lr-tb;fill:#00008b;fill-opacity:1;fill-rule:nonzero;stroke:none"
           id="text5506"><tspan
             x="0 6.4980001 8.7480001 15.246 19.746 24.246"
             y="0"
             sodipodi:role="line"
             id="tspan5508">D.Gndr</tspan></text>
</g><path
         d="M 3473.56,1441.39 2121.44,2488.61"
         style="fill:none;stroke:#a9a9a9;stroke-width:7.5;stroke-linecap:butt;stroke-linejoin:round;stroke-miterlimit:10;stroke-dasharray:none;stroke-opacity:1"
         id="path5510"
         inkscape:connector-curvature="0" /><g
         id="g5512"
         transform="scale(10,10)"><text
           transform="matrix(1,0,0,-1,261.625,193.718)"
           style="font-style:italic;font-variant:normal;font-size:9px;font-family:Times;-inkscape-font-specification:Times-Italic;writing-mode:lr-tb;fill:#00008b;fill-opacity:1;fill-rule:nonzero;stroke:none"
           id="text5514"><tspan
             x="0 6.4980001 8.7480001 14.751 19.250999 23.247 29.25 31.752001"
             y="0"
             sodipodi:role="line"
             id="tspan5516">D.NucKin</tspan></text>
</g><path
         d="M 5130.07,4743.59 3629.93,4691.41"
         style="fill:none;stroke:#a9a9a9;stroke-width:7.5;stroke-linecap:butt;stroke-linejoin:round;stroke-miterlimit:10;stroke-dasharray:none;stroke-opacity:1"
         id="path5518"
         inkscape:connector-curvature="0" /><g
         id="g5520"
         transform="scale(10,10)"><text
           transform="matrix(1,0,0,-1,417.625,468.968)"
           style="font-style:italic;font-variant:normal;font-size:9px;font-family:Times;-inkscape-font-specification:Times-Italic;writing-mode:lr-tb;fill:#00008b;fill-opacity:1;fill-rule:nonzero;stroke:none"
           id="text5522"><tspan
             x="0 6.4980001 8.7480001 14.751 19.250999 23.247 29.25 31.752001 36.251999"
             y="0"
             sodipodi:role="line"
             id="tspan5524">D.NucKin*</tspan></text>
</g><path
         d="m 5417.97,2671.59 1194.06,349.32"
         style="fill:none;stroke:#a9a9a9;stroke-width:7.5;stroke-linecap:butt;stroke-linejoin:round;stroke-miterlimit:10;stroke-dasharray:none;stroke-opacity:1"
         id="path5526"
         inkscape:connector-curvature="0" /><g
         id="g5528"
         transform="scale(10,10)"><text
           transform="matrix(1,0,0,-1,590.376,281.843)"
           style="font-style:italic;font-variant:normal;font-size:9px;font-family:Times;-inkscape-font-specification:Times-Italic;writing-mode:lr-tb;fill:#00008b;fill-opacity:1;fill-rule:nonzero;stroke:none"
           id="text5530"><tspan
             x="0 6.4980001 8.7480001 13.248 17.747999"
             y="0"
             sodipodi:role="line"
             id="tspan5532">D.SoS</tspan></text>
</g><path
         d="m 5307.34,2752.47 -24.68,1042.56"
         style="fill:none;stroke:#a9a9a9;stroke-width:7.5;stroke-linecap:butt;stroke-linejoin:round;stroke-miterlimit:10;stroke-dasharray:none;stroke-opacity:1"
         id="path5534"
         inkscape:connector-curvature="0" /><g
         id="g5536"
         transform="scale(10,10)"><text
           transform="matrix(1,0,0,-1,515.627,324.593)"
           style="font-style:italic;font-variant:normal;font-size:9px;font-family:Times;-inkscape-font-specification:Times-Italic;writing-mode:lr-tb;fill:#00008b;fill-opacity:1;fill-rule:nonzero;stroke:none"
           id="text5538"><tspan
             x="0 6.4980001 8.7480001 15.246 19.746 24.246"
             y="0"
             sodipodi:role="line"
             id="tspan5540">D.Gndr</tspan></text>
</g><path
         d="M 5413.89,2596.84 6758.61,2038.16"
         style="fill:none;stroke:#a9a9a9;stroke-width:7.5;stroke-linecap:butt;stroke-linejoin:round;stroke-miterlimit:10;stroke-dasharray:none;stroke-opacity:1"
         id="path5542"
         inkscape:connector-curvature="0" /><g
         id="g5544"
         transform="scale(10,10)"><text
           transform="matrix(1,0,0,-1,595.251,228.968)"
           style="font-style:italic;font-variant:normal;font-size:9px;font-family:Times;-inkscape-font-specification:Times-Italic;writing-mode:lr-tb;fill:#00008b;fill-opacity:1;fill-rule:nonzero;stroke:none"
           id="text5546"><tspan
             x="0 6.4980001 8.7480001 13.248 17.747999 22.247999"
             y="0"
             sodipodi:role="line"
             id="tspan5548">D.SoS*</tspan></text>
</g><path
         d="m 5312.51,2527.53 32.48,-1455.06"
         style="fill:none;stroke:#a9a9a9;stroke-width:7.5;stroke-linecap:butt;stroke-linejoin:round;stroke-miterlimit:10;stroke-dasharray:none;stroke-opacity:1"
         id="path5550"
         inkscape:connector-curvature="0" /><g
         id="g5552"
         transform="scale(10,10)"><text
           transform="matrix(1,0,0,-1,522.498,177.218)"
           style="font-style:italic;font-variant:normal;font-size:9px;font-family:Times;-inkscape-font-specification:Times-Italic;writing-mode:lr-tb;fill:#00008b;fill-opacity:1;fill-rule:nonzero;stroke:none"
           id="text5554"><tspan
             x="0 6.4980001 8.7480001 13.752 16.254"
             y="0"
             sodipodi:role="line"
             id="tspan5556">D.Lin</tspan></text>
</g><path
         d="M 5199.24,2659.71 3650.76,2935.29"
         style="fill:none;stroke:#a9a9a9;stroke-width:7.5;stroke-linecap:butt;stroke-linejoin:round;stroke-miterlimit:10;stroke-dasharray:none;stroke-opacity:1"
         id="path5558"
         inkscape:connector-curvature="0" /><g
         id="g5560"
         transform="scale(10,10)"><text
           transform="matrix(1,0,0,-1,424.375,276.968)"
           style="font-style:italic;font-variant:normal;font-size:9px;font-family:Times;-inkscape-font-specification:Times-Italic;writing-mode:lr-tb;fill:#00008b;fill-opacity:1;fill-rule:nonzero;stroke:none"
           id="text5562"><tspan
             x="0 6.4980001 8.7480001 14.751 19.250999 23.247 29.25 31.752001"
             y="0"
             sodipodi:role="line"
             id="tspan5564">D.NucKin</tspan></text>
</g><path
         d="M 5218.93,2573.95 3653.57,1438.55"
         style="fill:none;stroke:#a9a9a9;stroke-width:7.5;stroke-linecap:butt;stroke-linejoin:round;stroke-miterlimit:10;stroke-dasharray:none;stroke-opacity:1"
         id="path5566"
         inkscape:connector-curvature="0" /><g
         id="g5568"
         transform="scale(10,10)"><text
           transform="matrix(1,0,0,-1,430.998,197.843)"
           style="font-style:italic;font-variant:normal;font-size:9px;font-family:Times;-inkscape-font-specification:Times-Italic;writing-mode:lr-tb;fill:#00008b;fill-opacity:1;fill-rule:nonzero;stroke:none"
           id="text5570"><tspan
             x="0 6.4980001 8.7480001 13.752 16.254 20.754"
             y="0"
             sodipodi:role="line"
             id="tspan5572">D.Lin*</tspan></text>
</g><path
         d="M 5199.42,2619.3 3658.08,2330.7"
         style="fill:none;stroke:#a9a9a9;stroke-width:7.5;stroke-linecap:butt;stroke-linejoin:round;stroke-miterlimit:10;stroke-dasharray:none;stroke-opacity:1"
         id="path5574"
         inkscape:connector-curvature="0" /><g
         id="g5576"
         transform="scale(10,10)"><text
           transform="matrix(1,0,0,-1,429.002,244.718)"
           style="font-style:italic;font-variant:normal;font-size:9px;font-family:Times;-inkscape-font-specification:Times-Italic;writing-mode:lr-tb;fill:#00008b;fill-opacity:1;fill-rule:nonzero;stroke:none"
           id="text5578"><tspan
             x="0 6.4980001 8.7480001 15.246 19.746 24.246"
             y="0"
             sodipodi:role="line"
             id="tspan5580">D.Gndr</tspan></text>
</g><path
         d="M 3436.47,2328.14 2143.53,2539.36"
         style="fill:none;stroke:#a9a9a9;stroke-width:7.5;stroke-linecap:butt;stroke-linejoin:round;stroke-miterlimit:10;stroke-dasharray:none;stroke-opacity:1"
         id="path5582"
         inkscape:connector-curvature="0" /><g
         id="g5584"
         transform="scale(10,10)"><text
           transform="matrix(1,0,0,-1,260.875,240.593)"
           style="font-style:italic;font-variant:normal;font-size:9px;font-family:Times;-inkscape-font-specification:Times-Italic;writing-mode:lr-tb;fill:#00008b;fill-opacity:1;fill-rule:nonzero;stroke:none"
           id="text5586"><tspan
             x="0 6.4980001 8.7480001 14.751 19.250999 23.247 29.25 31.752001"
             y="0"
             sodipodi:role="line"
             id="tspan5588">D.NucKin</tspan></text>
</g><path
         d="m 2041.79,2669.62 78.92,953.26"
         style="fill:none;stroke:#a9a9a9;stroke-width:7.5;stroke-linecap:butt;stroke-linejoin:round;stroke-miterlimit:10;stroke-dasharray:none;stroke-opacity:1"
         id="path5590"
         inkscape:connector-curvature="0" /><g
         id="g5592"
         transform="scale(10,10)"><text
           transform="matrix(1,0,0,-1,197.748,311.843)"
           style="font-style:italic;font-variant:normal;font-size:9px;font-family:Times;-inkscape-font-specification:Times-Italic;writing-mode:lr-tb;fill:#00008b;fill-opacity:1;fill-rule:nonzero;stroke:none"
           id="text5594"><tspan
             x="0 6.4980001 8.7480001 13.752 16.254"
             y="0"
             sodipodi:role="line"
             id="tspan5596">D.Lin</tspan></text>
</g><path
         d="m 6810,3907.5 0,0 c 0,62.13 -50.37,112.5 -112.5,112.5 -62.13,0 -112.5,-50.37 -112.5,-112.5 0,-62.13 50.37,-112.5 112.5,-112.5 62.13,0 112.5,50.37 112.5,112.5"
         style="fill:#66c2a5;fill-opacity:1;fill-rule:nonzero;stroke:none"
         id="path5598"
         inkscape:connector-curvature="0" /><path
         d="m 6810,3907.5 0,0 c 0,62.13 -50.37,112.5 -112.5,112.5 -62.13,0 -112.5,-50.37 -112.5,-112.5 0,-62.13 50.37,-112.5 112.5,-112.5 62.13,0 112.5,50.37 112.5,112.5"
         style="fill:none;stroke:#000000;stroke-width:7.5;stroke-linecap:square;stroke-linejoin:miter;stroke-miterlimit:10;stroke-dasharray:none;stroke-opacity:1"
         id="path5600"
         inkscape:connector-curvature="0" /><g
         id="g5602"
         transform="scale(10,10)"><text
           transform="matrix(1,0,0,-1,667.586,387.733)"
           style="font-variant:normal;font-weight:normal;font-size:9.75px;font-family:Times;-inkscape-font-specification:Times-Roman;writing-mode:lr-tb;fill:#000000;fill-opacity:1;fill-rule:nonzero;stroke:none"
           id="text5604"><tspan
             x="0"
             y="0"
             id="tspan5606">a</tspan></text>
</g><path
         d="m 8437.5,3945 0,0 c 0,62.13 -50.37,112.5 -112.5,112.5 -62.13,0 -112.5,-50.37 -112.5,-112.5 0,-62.13 50.37,-112.5 112.5,-112.5 62.13,0 112.5,50.37 112.5,112.5"
         style="fill:#a0ad8a;fill-opacity:1;fill-rule:nonzero;stroke:none"
         id="path5608"
         inkscape:connector-curvature="0" /><path
         d="m 8437.5,3945 0,0 c 0,62.13 -50.37,112.5 -112.5,112.5 -62.13,0 -112.5,-50.37 -112.5,-112.5 0,-62.13 50.37,-112.5 112.5,-112.5 62.13,0 112.5,50.37 112.5,112.5"
         style="fill:#57b5ed;stroke:#000000;stroke-width:7.5;stroke-linecap:square;stroke-linejoin:miter;stroke-miterlimit:10;stroke-dasharray:none;stroke-opacity:1;fill-opacity:1"
         id="path5610"
         inkscape:connector-curvature="0" /><g
         id="g5612"
         transform="scale(10,10)"><text
           transform="matrix(1,0,0,-1,829.248,391.483)"
           style="font-variant:normal;font-weight:normal;font-size:9.75px;font-family:Times;-inkscape-font-specification:Times-Roman;writing-mode:lr-tb;fill:#000000;fill-opacity:1;fill-rule:nonzero;stroke:none"
           id="text5614"><tspan
             x="0"
             y="0"
             id="tspan5616">C</tspan></text>
</g><path
         d="m 2197.5,892.5 0,0 c 0,62.129 -50.37,112.5 -112.5,112.5 -62.13,0 -112.5,-50.371 -112.5,-112.5 0,-62.129 50.37,-112.5 112.5,-112.5 62.13,0 112.5,50.371 112.5,112.5"
         style="fill:#da9870;fill-opacity:1;fill-rule:nonzero;stroke:none"
         id="path5618"
         inkscape:connector-curvature="0" /><path
         d="m 2197.5,892.5 0,0 c 0,62.129 -50.37,112.5 -112.5,112.5 -62.13,0 -112.5,-50.371 -112.5,-112.5 0,-62.129 50.37,-112.5 112.5,-112.5 62.13,0 112.5,50.371 112.5,112.5"
         style="fill:none;stroke:#000000;stroke-width:7.5;stroke-linecap:square;stroke-linejoin:miter;stroke-miterlimit:10;stroke-dasharray:none;stroke-opacity:1"
         id="path5620"
         inkscape:connector-curvature="0" /><g
         id="g5622"
         transform="scale(10,10)"><text
           transform="matrix(1,0,0,-1,206.063,86.2328)"
           style="font-variant:normal;font-weight:normal;font-size:9.75px;font-family:Times;-inkscape-font-specification:Times-Roman;writing-mode:lr-tb;fill:#000000;fill-opacity:1;fill-rule:nonzero;stroke:none"
           id="text5624"><tspan
             x="0"
             y="0"
             id="tspan5626">b</tspan></text>
</g><path
         d="m 2145,2557.5 0,0 c 0,62.13 -50.37,112.5 -112.5,112.5 -62.13,0 -112.5,-50.37 -112.5,-112.5 0,-62.13 50.37,-112.5 112.5,-112.5 62.13,0 112.5,50.37 112.5,112.5"
         style="fill:#e99073;fill-opacity:1;fill-rule:nonzero;stroke:none"
         id="path5628"
         inkscape:connector-curvature="0" /><path
         d="m 2145,2557.5 0,0 c 0,62.13 -50.37,112.5 -112.5,112.5 -62.13,0 -112.5,-50.37 -112.5,-112.5 0,-62.13 50.37,-112.5 112.5,-112.5 62.13,0 112.5,50.37 112.5,112.5"
         style="fill:#fde5b7;stroke:#000000;stroke-width:7.5;stroke-linecap:square;stroke-linejoin:miter;stroke-miterlimit:10;stroke-dasharray:none;stroke-opacity:1;fill-opacity:1"
         id="path5630"
         inkscape:connector-curvature="0" /><g
         id="g5632"
         transform="scale(10,10)"><text
           transform="matrix(1,0,0,-1,200.54,252.733)"
           style="font-variant:normal;font-weight:normal;font-size:9.75px;font-family:Times;-inkscape-font-specification:Times-Roman;writing-mode:lr-tb;fill:#000000;fill-opacity:1;fill-rule:nonzero;stroke:none"
           id="text5634"><tspan
             x="0"
             y="0"
             id="tspan5636">F</tspan></text>
</g><path
         d="m 6832.5,3052.5 0,0 c 0,62.13 -50.37,112.5 -112.5,112.5 -62.13,0 -112.5,-50.37 -112.5,-112.5 0,-62.13 50.37,-112.5 112.5,-112.5 62.13,0 112.5,50.37 112.5,112.5"
         style="fill:#be979c;fill-opacity:1;fill-rule:nonzero;stroke:none"
         id="path5638"
         inkscape:connector-curvature="0" /><path
         d="m 6832.5,3052.5 0,0 c 0,62.13 -50.37,112.5 -112.5,112.5 -62.13,0 -112.5,-50.37 -112.5,-112.5 0,-62.13 50.37,-112.5 112.5,-112.5 62.13,0 112.5,50.37 112.5,112.5"
         style="fill:none;stroke:#000000;stroke-width:7.5;stroke-linecap:square;stroke-linejoin:miter;stroke-miterlimit:10;stroke-dasharray:none;stroke-opacity:1"
         id="path5640"
         inkscape:connector-curvature="0" /><g
         id="g5642"
         transform="scale(10,10)"><text
           transform="matrix(1,0,0,-1,669.836,302.233)"
           style="font-variant:normal;font-weight:normal;font-size:9.75px;font-family:Times;-inkscape-font-specification:Times-Roman;writing-mode:lr-tb;fill:#000000;fill-opacity:1;fill-rule:nonzero;stroke:none"
           id="text5644"><tspan
             x="0"
             y="0"
             id="tspan5646">c</tspan></text>
</g><path
         d="m 8482.5,3195 0,0 c 0,62.13 -50.37,112.5 -112.5,112.5 -62.13,0 -112.5,-50.37 -112.5,-112.5 0,-62.13 50.37,-112.5 112.5,-112.5 62.13,0 112.5,50.37 112.5,112.5"
         style="fill:#939ec5;fill-opacity:1;fill-rule:nonzero;stroke:none"
         id="path5648"
         inkscape:connector-curvature="0" /><path
         d="m 8482.5,3195 0,0 c 0,62.13 -50.37,112.5 -112.5,112.5 -62.13,0 -112.5,-50.37 -112.5,-112.5 0,-62.13 50.37,-112.5 112.5,-112.5 62.13,0 112.5,50.37 112.5,112.5"
         style="fill:#8980d4;stroke:#000000;stroke-width:7.5;stroke-linecap:square;stroke-linejoin:miter;stroke-miterlimit:10;stroke-dasharray:none;stroke-opacity:1;fill-opacity:1"
         id="path5650"
         inkscape:connector-curvature="0" /><g
         id="g5652"
         transform="scale(10,10)"><text
           transform="matrix(1,0,0,-1,834.021,316.483)"
           style="font-variant:normal;font-weight:normal;font-size:9.75px;font-family:Times;-inkscape-font-specification:Times-Roman;writing-mode:lr-tb;fill:#000000;fill-opacity:1;fill-rule:nonzero;stroke:none"
           id="text5654"><tspan
             x="0"
             y="0"
             id="tspan5656">L</tspan></text>
</g><path
         d="m 8482.5,1950 0,0 c 0,62.13 -50.37,112.5 -112.5,112.5 -62.13,0 -112.5,-50.37 -112.5,-112.5 0,-62.13 50.37,-112.5 112.5,-112.5 62.13,0 112.5,50.37 112.5,112.5"
         style="fill:#ab98c8;fill-opacity:1;fill-rule:nonzero;stroke:none"
         id="path5658"
         inkscape:connector-curvature="0" /><path
         d="m 8482.5,1950 0,0 c 0,62.13 -50.37,112.5 -112.5,112.5 -62.13,0 -112.5,-50.37 -112.5,-112.5 0,-62.13 50.37,-112.5 112.5,-112.5 62.13,0 112.5,50.37 112.5,112.5"
         style="fill:#297ab1;stroke:#000000;stroke-width:7.5;stroke-linecap:square;stroke-linejoin:miter;stroke-miterlimit:10;stroke-dasharray:none;stroke-opacity:1;fill-opacity:1"
         id="path5660"
         inkscape:connector-curvature="0" /><g
         id="g5662"
         transform="scale(10,10)"><text
           transform="matrix(1,0,0,-1,833.48,191.983)"
           style="font-variant:normal;font-weight:normal;font-size:9.75px;font-family:Times;-inkscape-font-specification:Times-Roman;writing-mode:lr-tb;fill:#000000;fill-opacity:1;fill-rule:nonzero;stroke:none"
           id="text5664"><tspan
             x="0"
             y="0"
             id="tspan5666">O</tspan></text>
</g><path
         d="m 5392.5,3907.5 0,0 c 0,62.13 -50.37,112.5 -112.5,112.5 -62.13,0 -112.5,-50.37 -112.5,-112.5 0,-62.13 50.37,-112.5 112.5,-112.5 62.13,0 112.5,50.37 112.5,112.5"
         style="fill:#cd90c5;fill-opacity:1;fill-rule:nonzero;stroke:none"
         id="path5668"
         inkscape:connector-curvature="0" /><path
         d="m 5392.5,3907.5 0,0 c 0,62.13 -50.37,112.5 -112.5,112.5 -62.13,0 -112.5,-50.37 -112.5,-112.5 0,-62.13 50.37,-112.5 112.5,-112.5 62.13,0 112.5,50.37 112.5,112.5"
         style="fill:#ed8f57;stroke:#000000;stroke-width:7.5;stroke-linecap:square;stroke-linejoin:miter;stroke-miterlimit:10;stroke-dasharray:none;stroke-opacity:1;fill-opacity:1"
         id="path5670"
         inkscape:connector-curvature="0" /><g
         id="g5672"
         transform="scale(10,10)"><text
           transform="matrix(1,0,0,-1,523.666,387.733)"
           style="font-variant:normal;font-weight:normal;font-size:9.75px;font-family:Times;-inkscape-font-specification:Times-Roman;writing-mode:lr-tb;fill:#000000;fill-opacity:1;fill-rule:nonzero;stroke:none"
           id="text5674"><tspan
             x="0"
             y="0"
             id="tspan5676">M</tspan></text>
</g><path
         d="m 5355,4747.5 0,0 c 0,62.13 -50.37,112.5 -112.5,112.5 -62.13,0 -112.5,-50.37 -112.5,-112.5 0,-62.13 50.37,-112.5 112.5,-112.5 62.13,0 112.5,50.37 112.5,112.5"
         style="fill:#df92b6;fill-opacity:1;fill-rule:nonzero;stroke:none"
         id="path5678"
         inkscape:connector-curvature="0" /><path
         d="m 5355,4747.5 0,0 c 0,62.13 -50.37,112.5 -112.5,112.5 -62.13,0 -112.5,-50.37 -112.5,-112.5 0,-62.13 50.37,-112.5 112.5,-112.5 62.13,0 112.5,50.37 112.5,112.5"
         style="fill:#bfd7e8;stroke:#000000;stroke-width:7.5;stroke-linecap:square;stroke-linejoin:miter;stroke-miterlimit:10;stroke-dasharray:none;stroke-opacity:1;fill-opacity:1"
         id="path5680"
         inkscape:connector-curvature="0" /><g
         id="g5682"
         transform="scale(10,10)"><text
           transform="matrix(1,0,0,-1,520.73,471.733)"
           style="font-variant:normal;font-weight:normal;font-size:9.75px;font-family:Times;-inkscape-font-specification:Times-Roman;writing-mode:lr-tb;fill:#000000;fill-opacity:1;fill-rule:nonzero;stroke:none"
           id="text5684"><tspan
             x="0"
             y="0"
             id="tspan5686">H</tspan></text>
</g><path
         d="m 5460,960 0,0 c 0,62.13 -50.37,112.5 -112.5,112.5 -62.13,0 -112.5,-50.37 -112.5,-112.5 0,-62.129 50.37,-112.5 112.5,-112.5 62.13,0 112.5,50.371 112.5,112.5"
         style="fill:#c6b18b;fill-opacity:1;fill-rule:nonzero;stroke:none"
         id="path5688"
         inkscape:connector-curvature="0" /><path
         d="m 5460,960 0,0 c 0,62.13 -50.37,112.5 -112.5,112.5 -62.13,0 -112.5,-50.37 -112.5,-112.5 0,-62.129 50.37,-112.5 112.5,-112.5 62.13,0 112.5,50.371 112.5,112.5"
         style="fill:#d0ccee;stroke:#000000;stroke-width:7.5;stroke-linecap:square;stroke-linejoin:miter;stroke-miterlimit:10;stroke-dasharray:none;stroke-opacity:1;fill-opacity:1"
         id="path5690"
         inkscape:connector-curvature="0" /><g
         id="g5692"
         transform="scale(10,10)"><text
           transform="matrix(1,0,0,-1,533.127,92.9828)"
           style="font-variant:normal;font-weight:normal;font-size:9.75px;font-family:Times;-inkscape-font-specification:Times-Roman;writing-mode:lr-tb;fill:#000000;fill-opacity:1;fill-rule:nonzero;stroke:none"
           id="text5694"><tspan
             x="0"
             y="0"
             id="tspan5696">I</tspan></text>
</g><path
         d="m 2257.5,4597.5 0,0 c 0,62.13 -50.37,112.5 -112.5,112.5 -62.13,0 -112.5,-50.37 -112.5,-112.5 0,-62.13 50.37,-112.5 112.5,-112.5 62.13,0 112.5,50.37 112.5,112.5"
         style="fill:#adcf60;fill-opacity:1;fill-rule:nonzero;stroke:none"
         id="path5698"
         inkscape:connector-curvature="0" /><path
         d="m 2257.5,4597.5 0,0 c 0,62.13 -50.37,112.5 -112.5,112.5 -62.13,0 -112.5,-50.37 -112.5,-112.5 0,-62.13 50.37,-112.5 112.5,-112.5 62.13,0 112.5,50.37 112.5,112.5"
         style="fill:#f8d2bc;stroke:#000000;stroke-width:7.5;stroke-linecap:square;stroke-linejoin:miter;stroke-miterlimit:10;stroke-dasharray:none;stroke-opacity:1;fill-opacity:1"
         id="path5700"
         inkscape:connector-curvature="0" /><g
         id="g5702"
         transform="scale(10,10)"><text
           transform="matrix(1,0,0,-1,211.248,456.733)"
           style="font-variant:normal;font-weight:normal;font-size:9.75px;font-family:Times;-inkscape-font-specification:Times-Roman;writing-mode:lr-tb;fill:#000000;fill-opacity:1;fill-rule:nonzero;stroke:none"
           id="text5704"><tspan
             x="0"
             y="0"
             id="tspan5706">B</tspan></text>
</g><path
         d="m 3630,4687.5 0,0 c 0,62.13 -50.37,112.5 -112.5,112.5 -62.13,0 -112.5,-50.37 -112.5,-112.5 0,-62.13 50.37,-112.5 112.5,-112.5 62.13,0 112.5,50.37 112.5,112.5"
         style="fill:#bed849;fill-opacity:1;fill-rule:nonzero;stroke:none"
         id="path5708"
         inkscape:connector-curvature="0" /><path
         d="m 3630,4687.5 0,0 c 0,62.13 -50.37,112.5 -112.5,112.5 -62.13,0 -112.5,-50.37 -112.5,-112.5 0,-62.13 50.37,-112.5 112.5,-112.5 62.13,0 112.5,50.37 112.5,112.5"
         style="fill:#17c3b2;stroke:#000000;stroke-width:7.5;stroke-linecap:square;stroke-linejoin:miter;stroke-miterlimit:10;stroke-dasharray:none;stroke-opacity:1;fill-opacity:1"
         id="path5710"
         inkscape:connector-curvature="0" /><g
         id="g5712"
         transform="scale(10,10)"><text
           transform="matrix(1,0,0,-1,348.23,465.733)"
           style="font-variant:normal;font-weight:normal;font-size:9.75px;font-family:Times;-inkscape-font-specification:Times-Roman;writing-mode:lr-tb;fill:#000000;fill-opacity:1;fill-rule:nonzero;stroke:none"
           id="text5714"><tspan
             x="0"
             y="0"
             id="tspan5716">A</tspan></text>
</g><path
         d="m 3652.5,2955 0,0 c 0,62.13 -50.37,112.5 -112.5,112.5 -62.13,0 -112.5,-50.37 -112.5,-112.5 0,-62.13 50.37,-112.5 112.5,-112.5 62.13,0 112.5,50.37 112.5,112.5"
         style="fill:#e1d83b;fill-opacity:1;fill-rule:nonzero;stroke:none"
         id="path5718"
         inkscape:connector-curvature="0" /><path
         d="m 3652.5,2955 0,0 c 0,62.13 -50.37,112.5 -112.5,112.5 -62.13,0 -112.5,-50.37 -112.5,-112.5 0,-62.13 50.37,-112.5 112.5,-112.5 62.13,0 112.5,50.37 112.5,112.5"
         style="fill:#ab4e68;stroke:#000000;stroke-width:7.5;stroke-linecap:square;stroke-linejoin:miter;stroke-miterlimit:10;stroke-dasharray:none;stroke-opacity:1;fill-opacity:1"
         id="path5720"
         inkscape:connector-curvature="0" /><g
         id="g5722"
         transform="scale(10,10)"><text
           transform="matrix(1,0,0,-1,351.021,292.483)"
           style="font-variant:normal;font-weight:normal;font-size:9.75px;font-family:Times;-inkscape-font-specification:Times-Roman;writing-mode:lr-tb;fill:#000000;fill-opacity:1;fill-rule:nonzero;stroke:none"
           id="text5724"><tspan
             x="0"
             y="0"
             id="tspan5726">E</tspan></text>
</g><path
         d="m 3652.5,3847.5 0,0 c 0,62.13 -50.37,112.5 -112.5,112.5 -62.13,0 -112.5,-50.37 -112.5,-112.5 0,-62.13 50.37,-112.5 112.5,-112.5 62.13,0 112.5,50.37 112.5,112.5"
         style="fill:#fdd734;fill-opacity:1;fill-rule:nonzero;stroke:none"
         id="path5728"
         inkscape:connector-curvature="0" /><path
         d="m 3652.5,3847.5 0,0 c 0,62.13 -50.37,112.5 -112.5,112.5 -62.13,0 -112.5,-50.37 -112.5,-112.5 0,-62.13 50.37,-112.5 112.5,-112.5 62.13,0 112.5,50.37 112.5,112.5"
         style="fill:#71ab7f;stroke:#000000;stroke-width:7.5;stroke-linecap:square;stroke-linejoin:miter;stroke-miterlimit:10;stroke-dasharray:none;stroke-opacity:1;fill-opacity:1"
         id="path5730"
         inkscape:connector-curvature="0" /><g
         id="g5732"
         transform="scale(10,10)"><text
           transform="matrix(1,0,0,-1,350.48,381.733)"
           style="font-variant:normal;font-weight:normal;font-size:9.75px;font-family:Times;-inkscape-font-specification:Times-Roman;writing-mode:lr-tb;fill:#000000;fill-opacity:1;fill-rule:nonzero;stroke:none"
           id="text5734"><tspan
             x="0"
             y="0"
             id="tspan5736">N</tspan></text>
</g><path
         d="m 2242.5,3735 0,0 c 0,62.13 -50.37,112.5 -112.5,112.5 -62.13,0 -112.5,-50.37 -112.5,-112.5 0,-62.13 50.37,-112.5 112.5,-112.5 62.13,0 112.5,50.37 112.5,112.5"
         style="fill:#f3cf5b;fill-opacity:1;fill-rule:nonzero;stroke:none"
         id="path5738"
         inkscape:connector-curvature="0" /><path
         d="m 2242.5,3735 0,0 c 0,62.13 -50.37,112.5 -112.5,112.5 -62.13,0 -112.5,-50.37 -112.5,-112.5 0,-62.13 50.37,-112.5 112.5,-112.5 62.13,0 112.5,50.37 112.5,112.5"
         style="fill:#fbbe4b;stroke:#000000;stroke-width:7.5;stroke-linecap:square;stroke-linejoin:miter;stroke-miterlimit:10;stroke-dasharray:none;stroke-opacity:1;fill-opacity:1"
         id="path5740"
         inkscape:connector-curvature="0" /><g
         id="g5742"
         transform="scale(10,10)"><text
           transform="matrix(1,0,0,-1,209.48,370.483)"
           style="font-variant:normal;font-weight:normal;font-size:9.75px;font-family:Times;-inkscape-font-specification:Times-Roman;writing-mode:lr-tb;fill:#000000;fill-opacity:1;fill-rule:nonzero;stroke:none"
           id="text5744"><tspan
             x="0"
             y="0"
             id="tspan5746">D</tspan></text>
</g><path
         d="m 3675,1372.5 0,0 c 0,62.13 -50.37,112.5 -112.5,112.5 -62.13,0 -112.5,-50.37 -112.5,-112.5 0,-62.13 50.37,-112.5 112.5,-112.5 62.13,0 112.5,50.37 112.5,112.5"
         style="fill:#e9c783;fill-opacity:1;fill-rule:nonzero;stroke:none"
         id="path5748"
         inkscape:connector-curvature="0" /><path
         d="m 3675,1372.5 0,0 c 0,62.13 -50.37,112.5 -112.5,112.5 -62.13,0 -112.5,-50.37 -112.5,-112.5 0,-62.13 50.37,-112.5 112.5,-112.5 62.13,0 112.5,50.37 112.5,112.5"
         style="fill:#ff9438;stroke:#000000;stroke-width:7.5;stroke-linecap:square;stroke-linejoin:miter;stroke-miterlimit:10;stroke-dasharray:none;stroke-opacity:1;fill-opacity:1"
         id="path5750"
         inkscape:connector-curvature="0" /><g
         id="g5752"
         transform="scale(10,10)"><text
           transform="matrix(1,0,0,-1,352.73,134.233)"
           style="font-variant:normal;font-weight:normal;font-size:9.75px;font-family:Times;-inkscape-font-specification:Times-Roman;writing-mode:lr-tb;fill:#000000;fill-opacity:1;fill-rule:nonzero;stroke:none"
           id="text5754"><tspan
             x="0"
             y="0"
             id="tspan5756">K</tspan></text>
</g><path
         d="m 5422.5,2640 0,0 c 0,62.13 -50.37,112.5 -112.5,112.5 -62.13,0 -112.5,-50.37 -112.5,-112.5 0,-62.13 50.37,-112.5 112.5,-112.5 62.13,0 112.5,50.37 112.5,112.5"
         style="fill:#d9c09a;fill-opacity:1;fill-rule:nonzero;stroke:none"
         id="path5758"
         inkscape:connector-curvature="0" /><path
         d="m 5422.5,2640 0,0 c 0,62.13 -50.37,112.5 -112.5,112.5 -62.13,0 -112.5,-50.37 -112.5,-112.5 0,-62.13 50.37,-112.5 112.5,-112.5 62.13,0 112.5,50.37 112.5,112.5"
         style="fill:#bce1f8;stroke:#000000;stroke-width:8;stroke-linecap:square;stroke-linejoin:miter;stroke-miterlimit:10;stroke-dasharray:none;stroke-opacity:1;fill-opacity:1"
         id="path5760"
         inkscape:connector-curvature="0" /><g
         id="g5762"
         transform="scale(10,10)"><text
           transform="matrix(1,0,0,-1,527.48,260.983)"
           style="font-variant:normal;font-weight:normal;font-size:9.75px;font-family:Times;-inkscape-font-specification:Times-Roman;writing-mode:lr-tb;fill:#000000;fill-opacity:1;fill-rule:nonzero;stroke:none"
           id="text5764"><tspan
             x="0"
             y="0"
             id="tspan5766">G</tspan></text>
</g><path
         d="m 6975,1995 0,0 c 0,62.13 -50.37,112.5 -112.5,112.5 -62.13,0 -112.5,-50.37 -112.5,-112.5 0,-62.13 50.37,-112.5 112.5,-112.5 62.13,0 112.5,50.37 112.5,112.5"
         style="fill:#c6b9a6;fill-opacity:1;fill-rule:nonzero;stroke:none"
         id="path5768"
         inkscape:connector-curvature="0" /><path
         d="m 6975,1995 0,0 c 0,62.13 -50.37,112.5 -112.5,112.5 -62.13,0 -112.5,-50.37 -112.5,-112.5 0,-62.13 50.37,-112.5 112.5,-112.5 62.13,0 112.5,50.37 112.5,112.5"
         style="fill:#ffd4af;stroke:#000000;stroke-width:7.5;stroke-linecap:square;stroke-linejoin:miter;stroke-miterlimit:10;stroke-dasharray:none;stroke-opacity:1;fill-opacity:1"
         id="path5770"
         inkscape:connector-curvature="0" /><g
         id="g5772"
         transform="scale(10,10)"><text
           transform="matrix(1,0,0,-1,684.354,196.483)"
           style="font-variant:normal;font-weight:normal;font-size:9.75px;font-family:Times;-inkscape-font-specification:Times-Roman;writing-mode:lr-tb;fill:#000000;fill-opacity:1;fill-rule:nonzero;stroke:none"
           id="text5774"><tspan
             x="0"
             y="0"
             id="tspan5776">J</tspan></text>
</g><path
         d="m 3660,2310 0,0 c 0,62.13 -50.37,112.5 -112.5,112.5 -62.13,0 -112.5,-50.37 -112.5,-112.5 0,-62.13 50.37,-112.5 112.5,-112.5 62.13,0 112.5,50.37 112.5,112.5"
         style="fill:#b3b3b3;fill-opacity:1;fill-rule:nonzero;stroke:none"
         id="path5778"
         inkscape:connector-curvature="0" /><path
         d="m 3660,2310 0,0 c 0,62.13 -50.37,112.5 -112.5,112.5 -62.13,0 -112.5,-50.37 -112.5,-112.5 0,-62.13 50.37,-112.5 112.5,-112.5 62.13,0 112.5,50.37 112.5,112.5"
         style="fill:#c6ddcc;stroke:#000000;stroke-width:7.5;stroke-linecap:square;stroke-linejoin:miter;stroke-miterlimit:10;stroke-dasharray:none;stroke-opacity:1;fill-opacity:1"
         id="path5780"
         inkscape:connector-curvature="0" /><g
         id="g5782"
         transform="scale(10,10)"><text
           transform="matrix(1,0,0,-1,352.04,227.983)"
           style="font-variant:normal;font-weight:normal;font-size:9.75px;font-family:Times;-inkscape-font-specification:Times-Roman;writing-mode:lr-tb;fill:#000000;fill-opacity:1;fill-rule:nonzero;stroke:none"
           id="text5784"><tspan
             x="0"
             y="0"
             id="tspan5786">P</tspan></text>
</g></g></g></svg>