<?xml version="1.0" encoding="UTF-8" standalone="no"?>
<!-- Created with Inkscape (http://www.inkscape.org/) -->

<svg
   xmlns:dc="http://purl.org/dc/elements/1.1/"
   xmlns:cc="http://creativecommons.org/ns#"
   xmlns:rdf="http://www.w3.org/1999/02/22-rdf-syntax-ns#"
   xmlns:svg="http://www.w3.org/2000/svg"
   xmlns="http://www.w3.org/2000/svg"
   xmlns:sodipodi="http://sodipodi.sourceforge.net/DTD/sodipodi-0.dtd"
   xmlns:inkscape="http://www.inkscape.org/namespaces/inkscape"
   id="svg5363"
   version="1.1"
   inkscape:version="0.91 r13725"
   xml:space="preserve"
   width="1706.803"
   height="604.92542"
   viewBox="0 0 1706.803 604.92542"
   sodipodi:docname="siblings_new.svg"><metadata
     id="metadata5369"><rdf:RDF><cc:Work
         rdf:about=""><dc:format>image/svg+xml</dc:format><dc:type
           rdf:resource="http://purl.org/dc/dcmitype/StillImage" /><dc:title></dc:title></cc:Work></rdf:RDF></metadata><defs
     id="defs5367" /><sodipodi:namedview
     pagecolor="#ffffff"
     bordercolor="#666666"
     borderopacity="1"
     objecttolerance="10"
     gridtolerance="10"
     guidetolerance="10"
     inkscape:pageopacity="0"
     inkscape:pageshadow="2"
     inkscape:window-width="1219"
     inkscape:window-height="659"
     id="namedview5365"
     showgrid="false"
     inkscape:zoom="0.40426459"
     inkscape:cx="757.50971"
     inkscape:cy="82.305717"
     inkscape:window-x="0"
     inkscape:window-y="0"
     inkscape:window-maximized="0"
     inkscape:current-layer="g5373" /><g
     id="g5371"
     inkscape:groupmode="layer"
     inkscape:label="siblings_new"
     transform="matrix(1.25,0,0,-1.25,0,604.92538)"><g
       id="g5373"><g
         id="g5375"
         transform="matrix(1,0,0,-1,0,483.94031)"><path
           d="m 786.809,229.316 0,-179.164"
           style="fill:none;stroke:#a7a7a7;stroke-width:5;stroke-linecap:butt;stroke-linejoin:miter;stroke-miterlimit:6.49579906;stroke-dasharray:none;stroke-opacity:0.51372597"
           id="path5377"
           inkscape:connector-curvature="0" /></g><g
         id="g5379"
         transform="matrix(1,0,0,-1,0,483.94031)"><path
           d="m 786.164,430.387 0,-185.606"
           style="fill:none;stroke:#57b5ed;stroke-width:5;stroke-linecap:butt;stroke-linejoin:miter;stroke-miterlimit:7.23529387;stroke-dasharray:none;stroke-opacity:1"
           id="path5381"
           inkscape:connector-curvature="0" /></g><g
         id="g5383"
         transform="matrix(1,0,0,-1,0,483.94031)"><path
           d="m 793.254,50.152 420.191,0"
           style="fill:none;stroke:#a7a7a7;stroke-width:5;stroke-linecap:butt;stroke-linejoin:miter;stroke-miterlimit:6.49579906;stroke-dasharray:none;stroke-opacity:0.51372597"
           id="path5385"
           inkscape:connector-curvature="0" /></g><g
         id="g5387"
         transform="matrix(1,0,0,-1,0,483.94031)"><path
           d="m 1216.023,56.598 0,371.211"
           style="fill:none;stroke:#a7a7a7;stroke-width:5;stroke-linecap:butt;stroke-linejoin:miter;stroke-miterlimit:6.49579906;stroke-dasharray:none;stroke-opacity:0.51372597"
           id="path5389"
           inkscape:connector-curvature="0" /></g><g
         id="g5391"
         transform="matrix(1,0,0,-1,0,483.94031)"><path
           d="m 1214.734,431.934 -430.504,0"
           style="fill:none;stroke:#a7a7a7;stroke-width:5;stroke-linecap:butt;stroke-linejoin:miter;stroke-miterlimit:6.49579906;stroke-dasharray:none;stroke-opacity:0.51372597"
           id="path5393"
           inkscape:connector-curvature="0" /></g><g
         id="g5395"
         transform="matrix(1,0,0,-1,0,483.94031)"><path
           d="m 789.258,426.859 422.894,-187.75"
           style="fill:none;stroke:#ed5c4d;stroke-width:5;stroke-linecap:butt;stroke-linejoin:miter;stroke-miterlimit:7.23529387;stroke-dasharray:none;stroke-opacity:1"
           id="path5397"
           inkscape:connector-curvature="0" /></g><g
         id="g5399"
         transform="matrix(1,0,0,-1,0,483.94031)"><path
           d="m 1004.352,233.641 205.98,0"
           style="fill:none;stroke:#a9a9a9;stroke-width:5;stroke-linecap:butt;stroke-linejoin:miter;stroke-miterlimit:6.49579906;stroke-dasharray:none;stroke-opacity:0.53333297"
           id="path5401"
           inkscape:connector-curvature="0" /></g><g
         id="g5403"
         transform="matrix(1,0,0,-1,0,483.94031)"><path
           d="M 785.613,430.504 1004.352,235.461"
           style="fill:none;stroke:#a9a9a9;stroke-width:5;stroke-linecap:butt;stroke-linejoin:miter;stroke-miterlimit:6.49579906;stroke-dasharray:none;stroke-opacity:0.53333297"
           id="path5405"
           inkscape:connector-curvature="0" /></g><g
         id="g5407"
         transform="matrix(1,0,0,-1,0,483.94031)"><path
           d="M 1208.508,234.551 1006.176,132.473 786.527,50.445"
           style="fill:none;stroke:#a9a9a9;stroke-width:5;stroke-linecap:butt;stroke-linejoin:miter;stroke-miterlimit:6.49579906;stroke-dasharray:none;stroke-opacity:0.53333297"
           id="path5409"
           inkscape:connector-curvature="0" /></g><text
         transform="matrix(1,0,0,-1,42.437943,4.872251)"
         style="font-variant:normal;font-weight:normal;font-size:21.99232674px;font-family:Times;-inkscape-font-specification:Times-Roman;writing-mode:lr-tb;fill:#000000;fill-opacity:1;fill-rule:nonzero;stroke:none"
         id="text5411"><tspan
           x="0 17.088037 32.966496 38.464577 45.788021 61.666481 67.164566 84.252602 90.278496 96.370369 101.86845 109.1919 115.28378"
           y="0"
           sodipodi:role="line"
           id="tspan5413">mX fX m// f//</tspan><tspan
           x="-42.867485 -35.544041 -19.665583 -14.1675 2.920537 18.798996 24.297077 31.620522 41.363121 47.389019 53.480896 58.978977 66.302422 77.298584 83.390457 89.48233 94.980415 112.00247 121.74507 127.83695 133.86284 139.36093 146.68437 157.68054 163.77242"
           y="-266.27753"
           sodipodi:role="line"
           id="tspan5415">fX mX fe// fy// me// fy//</tspan><tspan
           x="680.25903 687.58252 697.32513 711.97198 717.47009 728.46625 743.04718 748.54523 758.28784 771.70312 777.20123 788.19739 801.61273"
           y="-282.24484"
           sodipodi:role="line"
           id="tspan5417">(eB yB eZ yZ)</tspan><tspan
           x="682.47662 689.80011 699.54266 714.18958 719.68762 729.36426 742.7796 750.10303 757.42651 768.42267 783.06952 788.56763 799.56378 812.97913"
           y="-464.20605"
           sodipodi:role="line"
           id="tspan5419">(eB eZ)(yB yZ)</tspan><tspan
           x="495.6243 511.50275 517.00085 523.09271"
           y="-269.28564"
           sodipodi:role="line"
           id="tspan5421">X //</tspan><tspan
           x="673.01343 680.33691 690.07947 704.72638 710.22449 721.22064 735.80151 743.125 748.62305 755.94653 765.68909 779.10443 784.60254 795.59869 809.01398"
           y="-1.8163242"
           sodipodi:role="line"
           id="tspan5423">(eB yB) (eZ yZ)</tspan><tspan
           x="1113.257 1122.9995 1137.6465 1143.1445 1152.8212 1166.2365 1171.7345 1179.058 1190.0542 1204.701 1210.1991 1221.1953 1234.6106"
           y="-464.16943"
           sodipodi:role="line"
           id="tspan5425">eB eZ (yB yZ)</tspan></text>
<g
         id="g5427"
         transform="translate(0,483.94031)"><path
           d="m 1019.906,-135.008 c 0,7.008 -5.683,12.692 -12.687,12.692 -7.008,0 -12.688,-5.684 -12.688,-12.692 0,-7.008 5.68,-12.687 12.688,-12.687 7.004,0 12.687,5.679 12.687,12.687"
           style="fill:#fde5b7;fill-opacity:1;fill-rule:nonzero;stroke:#000000;stroke-width:2.2556231;stroke-linecap:square;stroke-linejoin:miter;stroke-miterlimit:10;stroke-dasharray:none;stroke-opacity:1"
           id="path5429"
           inkscape:connector-curvature="0" /></g><text
         transform="matrix(1,0,0,-1,945.74136,381.76439)"
         style="font-variant:normal;font-weight:normal;font-size:21.99232674px;font-family:Times;-inkscape-font-specification:Times-Roman;writing-mode:lr-tb;fill:#000000;fill-opacity:1;fill-rule:nonzero;stroke:none"
         id="text5431"><tspan
           x="0 7.3234444 17.066046 31.712934 37.211014 46.887638 60.302959 67.626404 73.124481 84.120644 98.767532 104.26562 115.26178"
           y="0"
           sodipodi:role="line"
           id="tspan5433">(eB eZ) yB yZ</tspan><tspan
           x="-632.80878 -626.71692 -620.625 -615.12695 -598.03888 -582.22644 -576.72833 -569.40491"
           y="99.948196"
           sodipodi:role="line"
           id="tspan5435">// mX fX</tspan><tspan
           x="-897.96503 -888.22241 -882.13055 -876.10461 -870.60657 -859.61041 -853.51849 -847.42664 -836.43048 -819.34247 -803.46399 -797.96588 -790.64246"
           y="-71.96283"
           sodipodi:role="line"
           id="tspan5437">e// y// mX fX</tspan><tspan
           x="-459.18259 -443.30414 -437.80606 -428.06345 -421.97159 -415.94568 -410.4476 -399.45145 -393.35956"
           y="-77.709267"
           sodipodi:role="line"
           id="tspan5439">X e// y//</tspan><tspan
           x="-462.8273 -446.94885 -435.9527 -418.86465 -412.77277 -406.74689 -401.24881 -393.92535 -387.8335"
           y="373.79868"
           sodipodi:role="line"
           id="tspan5441">X m// f//</tspan><tspan
           x="200.85779 210.60039 225.24727 230.74536 241.74152 256.32242 261.8205 269.14395 278.88657 292.30188 297.79996 308.79611 322.21143"
           y="376.95358"
           sodipodi:role="line"
           id="tspan5443">eB yB (eZ yZ)</tspan><tspan
           x="305.88702 315.62961 330.27652 335.7746 345.4512 358.86652 364.36462 375.36078 390.00766 395.50574 406.50192"
           y="143.173"
           sodipodi:role="line"
           id="tspan5445">eB eZ yB yZ</tspan><tspan
           x="-29.847193 -22.523748 -12.781148 1.865741 7.3638225 18.359985 32.940899 40.264343 45.762424 55.505024 68.920341 74.418427 85.414589"
           y="168.80045"
           sodipodi:role="line"
           id="tspan5447">(eB yB) eZ yZ</tspan></text>
<g
         id="g5449"
         transform="matrix(1,0,0,-1,0,483.94031)"><path
           d="m 108.355,430.559 411.957,0 0,-14.582"
           style="fill:none;stroke:#a9a9a9;stroke-width:5;stroke-linecap:butt;stroke-linejoin:miter;stroke-miterlimit:6.49579906;stroke-dasharray:none;stroke-opacity:0.53333297"
           id="path5451"
           inkscape:connector-curvature="0" /></g><g
         id="g5453"
         transform="matrix(1,0,0,-1,0,483.94031)"><path
           d="m 104.711,425.035 0,-368.211"
           style="fill:none;stroke:#a9a9a9;stroke-width:5;stroke-linecap:butt;stroke-linejoin:miter;stroke-miterlimit:6.49579906;stroke-dasharray:none;stroke-opacity:0.53333297"
           id="path5455"
           inkscape:connector-curvature="0" /></g><g
         id="g5457"
         transform="matrix(1,0,0,-1,0,483.94031)"><path
           d="m 104.711,56.824 415.601,0"
           style="fill:none;stroke:#a9a9a9;stroke-width:5;stroke-linecap:butt;stroke-linejoin:miter;stroke-miterlimit:6.49579906;stroke-dasharray:none;stroke-opacity:0.53333297"
           id="path5459"
           inkscape:connector-curvature="0" /></g><g
         id="g5461"
         transform="matrix(1,0,0,-1,0,483.94031)"><path
           d="M 108.355,56.824 323.449,231.816"
           style="fill:none;stroke:#a9a9a9;stroke-width:5;stroke-linecap:butt;stroke-linejoin:miter;stroke-miterlimit:6.49579906;stroke-dasharray:none;stroke-opacity:0.53333297"
           id="path5463"
           inkscape:connector-curvature="0" /></g><g
         id="g5465"
         transform="matrix(1,0,0,-1,0,483.94031)"><path
           d="m 323.449,235.461 200.508,0"
           style="fill:none;stroke:#a9a9a9;stroke-width:5;stroke-linecap:butt;stroke-linejoin:miter;stroke-miterlimit:6.49579906;stroke-dasharray:none;stroke-opacity:0.53333297"
           id="path5467"
           inkscape:connector-curvature="0" /></g><g
         id="g5469"
         transform="matrix(1,0,0,-1,0,483.94031)"><path
           d="m 523.957,45.891 0,386.437"
           style="fill:none;stroke:#a9a9a9;stroke-width:5;stroke-linecap:butt;stroke-linejoin:miter;stroke-miterlimit:6.49579906;stroke-dasharray:none;stroke-opacity:0.53333297"
           id="path5471"
           inkscape:connector-curvature="0" /></g><g
         id="g5473"
         transform="matrix(1,0,0,-1,0,483.94031)"><path
           d="M 104.711,428.68 516.668,239.109"
           style="fill:none;stroke:#a9a9a9;stroke-width:5;stroke-linecap:butt;stroke-linejoin:miter;stroke-miterlimit:6.49579906;stroke-dasharray:none;stroke-opacity:0.53333297"
           id="path5475"
           inkscape:connector-curvature="0" /></g><g
         id="g5477"
         transform="matrix(1,0,0,-1,0,483.94031)"><path
           d="M 323.449,235.461 108.355,425.035"
           style="fill:none;stroke:#a9a9a9;stroke-width:5;stroke-linecap:butt;stroke-linejoin:miter;stroke-miterlimit:6.49579906;stroke-dasharray:none;stroke-opacity:0.53333297"
           id="path5479"
           inkscape:connector-curvature="0" /></g><g
         id="g5481"
         transform="matrix(1,0,0,-1,0,483.94031)"><path
           d="m 523.957,235.461 259.527,0"
           style="fill:none;stroke:#57b5ed;stroke-width:5;stroke-linecap:butt;stroke-linejoin:miter;stroke-miterlimit:7.23529387;stroke-dasharray:none;stroke-opacity:1"
           id="path5483"
           inkscape:connector-curvature="0" /></g><g
         id="g5485"
         transform="translate(0,483.94031)"><path
           d="m 799.758,-236.504 c 0,7.008 -5.684,12.688 -12.688,12.688 -7.011,0 -12.687,-5.68 -12.687,-12.688 0,-7.004 5.676,-12.687 12.687,-12.687 7.004,0 12.688,5.683 12.688,12.687"
           style="fill:#71ab7f;fill-opacity:1;fill-rule:nonzero;stroke:#000000;stroke-width:2.2556231;stroke-linecap:square;stroke-linejoin:miter;stroke-miterlimit:10;stroke-dasharray:none;stroke-opacity:1"
           id="path5487"
           inkscape:connector-curvature="0" /></g><g
         id="g5489"
         transform="translate(0,483.94031)"><path
           d="m 1019.016,-234.664 c 0,7.004 -5.684,12.687 -12.692,12.687 -7.008,0 -12.687,-5.683 -12.687,-12.687 0,-7.008 5.679,-12.688 12.687,-12.688 7.008,0 12.692,5.68 12.692,12.688"
           style="fill:#ed8f57;fill-opacity:1;fill-rule:nonzero;stroke:#000000;stroke-width:2.2556231;stroke-linecap:square;stroke-linejoin:miter;stroke-miterlimit:10;stroke-dasharray:none;stroke-opacity:1"
           id="path5491"
           inkscape:connector-curvature="0" /></g><g
         id="g5493"
         transform="translate(0,483.94031)"><path
           d="m 1224.031,-236.504 c 0,7.008 -5.683,12.688 -12.687,12.688 -7.012,0 -12.688,-5.68 -12.688,-12.688 0,-7.004 5.676,-12.687 12.688,-12.687 7.004,0 12.687,5.683 12.687,12.687"
           style="fill:#fbbe4b;fill-opacity:1;fill-rule:nonzero;stroke:#000000;stroke-width:2.2556231;stroke-linecap:square;stroke-linejoin:miter;stroke-miterlimit:10;stroke-dasharray:none;stroke-opacity:1"
           id="path5495"
           inkscape:connector-curvature="0" /></g><g
         id="g5497"
         transform="translate(0,483.94031)"><path
           d="m 1229.445,-430.383 c 0,7.008 -5.683,12.688 -12.687,12.688 -7.012,0 -12.688,-5.68 -12.688,-12.688 0,-7.008 5.676,-12.691 12.688,-12.691 7.004,0 12.687,5.683 12.687,12.691"
           style="fill:#ff9438;fill-opacity:1;fill-rule:nonzero;stroke:#000000;stroke-width:2.2556231;stroke-linecap:square;stroke-linejoin:miter;stroke-miterlimit:10;stroke-dasharray:none;stroke-opacity:1"
           id="path5499"
           inkscape:connector-curvature="0" /></g><g
         id="g5501"
         transform="translate(0,483.94031)"><path
           d="m 799.758,-430.383 c 0,7.008 -5.684,12.688 -12.688,12.688 -7.011,0 -12.687,-5.68 -12.687,-12.688 0,-7.008 5.676,-12.691 12.687,-12.691 7.004,0 12.688,5.683 12.688,12.691"
           style="fill:#8980d4;fill-opacity:1;fill-rule:nonzero;stroke:#000000;stroke-width:2.2556231;stroke-linecap:square;stroke-linejoin:miter;stroke-miterlimit:10;stroke-dasharray:none;stroke-opacity:1"
           id="path5503"
           inkscape:connector-curvature="0" /></g><g
         id="g5505"
         transform="translate(0,483.94031)"><path
           d="m 799.758,-49.668 c 0,7.012 -5.684,12.688 -12.688,12.688 -7.011,0 -12.687,-5.676 -12.687,-12.688 0,-7.004 5.676,-12.687 12.687,-12.687 7.004,0 12.688,5.683 12.688,12.687"
           style="fill:#ffd4af;fill-opacity:1;fill-rule:nonzero;stroke:#000000;stroke-width:2.2556231;stroke-linecap:square;stroke-linejoin:miter;stroke-miterlimit:10;stroke-dasharray:none;stroke-opacity:1"
           id="path5507"
           inkscape:connector-curvature="0" /></g><g
         id="g5509"
         transform="translate(0,483.94031)"><path
           d="m 1229.445,-51.508 c 0,7.008 -5.683,12.688 -12.687,12.688 -7.012,0 -12.688,-5.68 -12.688,-12.688 0,-7.004 5.676,-12.687 12.688,-12.687 7.004,0 12.687,5.683 12.687,12.687"
           style="fill:#bfd7e8;fill-opacity:1;fill-rule:nonzero;stroke:#000000;stroke-width:2.2556231;stroke-linecap:square;stroke-linejoin:miter;stroke-miterlimit:10;stroke-dasharray:none;stroke-opacity:1"
           id="path5511"
           inkscape:connector-curvature="0" /></g><g
         id="g5513"
         transform="translate(0,483.94031)"><path
           d="m 118.277,-56.922 c 0,7.008 -5.683,12.688 -12.687,12.688 -7.012,0 -12.688,-5.68 -12.688,-12.688 0,-7.004 5.676,-12.687 12.688,-12.687 7.004,0 12.687,5.683 12.687,12.687"
           style="fill:#c6ddcc;fill-opacity:1;fill-rule:nonzero;stroke:#000000;stroke-width:2.2556231;stroke-linecap:square;stroke-linejoin:miter;stroke-miterlimit:10;stroke-dasharray:none;stroke-opacity:1"
           id="path5515"
           inkscape:connector-curvature="0" /></g><g
         id="g5517"
         transform="translate(0,483.94031)"><path
           d="m 118.277,-236.504 c 0,7.008 -5.683,12.688 -12.687,12.688 -7.012,0 -12.688,-5.68 -12.688,-12.688 0,-7.004 5.676,-12.687 12.688,-12.687 7.004,0 12.687,5.683 12.687,12.687"
           style="fill:#bce1f8;fill-opacity:1;fill-rule:nonzero;stroke:#000000;stroke-width:2.2556231;stroke-linecap:square;stroke-linejoin:miter;stroke-miterlimit:10;stroke-dasharray:none;stroke-opacity:1"
           id="path5519"
           inkscape:connector-curvature="0" /></g><g
         id="g5521"
         transform="translate(0,483.94031)"><path
           d="m 120.082,-430.383 c 0,7.008 -5.684,12.688 -12.687,12.688 -7.012,0 -12.688,-5.68 -12.688,-12.688 0,-7.008 5.676,-12.691 12.688,-12.691 7.003,0 12.687,5.683 12.687,12.691"
           style="fill:#57b5ed;fill-opacity:1;fill-rule:nonzero;stroke:#000000;stroke-width:2.2556231;stroke-linecap:square;stroke-linejoin:miter;stroke-miterlimit:10;stroke-dasharray:none;stroke-opacity:1"
           id="path5523"
           inkscape:connector-curvature="0" /></g><g
         id="g5525"
         transform="translate(0,483.94031)"><path
           d="m 336.977,-236.504 c 0,7.008 -5.684,12.688 -12.688,12.688 -7.012,0 -12.687,-5.68 -12.687,-12.688 0,-7.004 5.675,-12.687 12.687,-12.687 7.004,0 12.688,5.683 12.688,12.687"
           style="fill:#d0ccee;fill-opacity:1;fill-rule:nonzero;stroke:#000000;stroke-width:2.2556231;stroke-linecap:square;stroke-linejoin:miter;stroke-miterlimit:10;stroke-dasharray:none;stroke-opacity:1"
           id="path5527"
           inkscape:connector-curvature="0" /></g><g
         id="g5529"
         transform="translate(0,483.94031)"><path
           d="m 535.566,-56.922 c 0,7.008 -5.683,12.688 -12.687,12.688 -7.008,0 -12.688,-5.68 -12.688,-12.688 0,-7.004 5.68,-12.687 12.688,-12.687 7.004,0 12.687,5.683 12.687,12.687"
           style="fill:#ab4e68;fill-opacity:1;fill-rule:nonzero;stroke:#000000;stroke-width:2.2556231;stroke-linecap:square;stroke-linejoin:miter;stroke-miterlimit:10;stroke-dasharray:none;stroke-opacity:1"
           id="path5531"
           inkscape:connector-curvature="0" /></g><g
         id="g5533"
         transform="translate(0,483.94031)"><path
           d="m 535.566,-430.383 c 0,7.008 -5.683,12.688 -12.687,12.688 -7.008,0 -12.688,-5.68 -12.688,-12.688 0,-7.008 5.68,-12.691 12.688,-12.691 7.004,0 12.687,5.683 12.687,12.691"
           style="fill:#17c3b2;fill-opacity:1;fill-rule:nonzero;stroke:#3a0505;stroke-width:2.2556231;stroke-linecap:square;stroke-linejoin:miter;stroke-miterlimit:10;stroke-dasharray:none;stroke-opacity:1"
           id="path5535"
           inkscape:connector-curvature="0" /></g><g
         id="g5537"
         transform="translate(0,483.94031)"><path
           d="m 535.566,-236.504 c 0,7.008 -5.683,12.688 -12.687,12.688 -7.008,0 -12.688,-5.68 -12.688,-12.688 0,-7.004 5.68,-12.687 12.688,-12.687 7.004,0 12.687,5.683 12.687,12.687"
           style="fill:#f8d2bc;fill-opacity:1;fill-rule:nonzero;stroke:#000000;stroke-width:2.2556231;stroke-linecap:square;stroke-linejoin:miter;stroke-miterlimit:10;stroke-dasharray:none;stroke-opacity:1"
           id="path5539"
           inkscape:connector-curvature="0" /></g><text
         xml:space="preserve"
         style="font-style:normal;font-variant:normal;font-weight:normal;font-stretch:normal;font-size:20px;line-height:125%;font-family:Times;-inkscape-font-specification:Times;letter-spacing:0px;word-spacing:0px;fill:#00008b;fill-opacity:1;stroke:none;stroke-width:1px;stroke-linecap:butt;stroke-linejoin:miter;stroke-opacity:1"
         x="262.3331"
         y="-19.059025"
         id="text6133"
         sodipodi:linespacing="125%"
         transform="scale(1,-1)"><tspan
           sodipodi:role="line"
           id="tspan6135"
           x="262.3331"
           y="-19.059025"
           style="font-size:25px;fill:#00008b;fill-opacity:1">D.GoS*</tspan></text>
<text
         xml:space="preserve"
         style="font-style:normal;font-variant:normal;font-weight:normal;font-stretch:normal;font-size:20px;line-height:125%;font-family:Times;-inkscape-font-specification:Times;letter-spacing:0px;word-spacing:0px;fill:#00008b;fill-opacity:1;stroke:none;stroke-width:1px;stroke-linecap:butt;stroke-linejoin:miter;stroke-opacity:1"
         x="195.52353"
         y="-179.73761"
         id="text6133-7"
         sodipodi:linespacing="125%"
         transform="scale(1,-1)"><tspan
           sodipodi:role="line"
           id="tspan6135-3"
           x="195.52353"
           y="-179.73761"
           style="font-size:25px;fill:#00008b;fill-opacity:1">D.GoS*</tspan></text>
<text
         xml:space="preserve"
         style="font-style:normal;font-variant:normal;font-weight:normal;font-stretch:normal;font-size:20px;line-height:125%;font-family:Times;-inkscape-font-specification:Times;letter-spacing:0px;word-spacing:0px;fill:#00008b;fill-opacity:1;stroke:none;stroke-width:1px;stroke-linecap:butt;stroke-linejoin:miter;stroke-opacity:1"
         x="401.32932"
         y="-262.85147"
         id="text6133-6"
         sodipodi:linespacing="125%"
         transform="scale(1,-1)"><tspan
           sodipodi:role="line"
           id="tspan6135-2"
           x="401.32932"
           y="-262.85147"
           style="font-size:25px;fill:#00008b;fill-opacity:1">D.GoS*</tspan></text>
<text
         xml:space="preserve"
         style="font-style:normal;font-variant:normal;font-weight:normal;font-stretch:normal;font-size:20px;line-height:125%;font-family:Times;-inkscape-font-specification:Times;letter-spacing:0px;word-spacing:0px;fill:#00008b;fill-opacity:1;stroke:none;stroke-width:1px;stroke-linecap:butt;stroke-linejoin:miter;stroke-opacity:1"
         x="485.9588"
         y="-143.27516"
         id="text6133-8"
         sodipodi:linespacing="125%"
         transform="scale(1,-1)"><tspan
           sodipodi:role="line"
           id="tspan6135-9"
           x="485.9588"
           y="-143.27516"
           style="font-size:25px;fill:#00008b;fill-opacity:1">D.GoS*</tspan></text>
<text
         xml:space="preserve"
         style="font-style:normal;font-variant:normal;font-weight:normal;font-stretch:normal;font-size:20px;line-height:125%;font-family:Times;-inkscape-font-specification:Times;letter-spacing:0px;word-spacing:0px;fill:#00008b;fill-opacity:1;stroke:none;stroke-width:1px;stroke-linecap:butt;stroke-linejoin:miter;stroke-opacity:1"
         x="273.54291"
         y="-438.13153"
         id="text6133-5"
         sodipodi:linespacing="125%"
         transform="scale(1,-1)"><tspan
           sodipodi:role="line"
           id="tspan6135-92"
           x="273.54291"
           y="-438.13153"
           style="font-size:25px;fill:#00008b;fill-opacity:1">D.GoS*</tspan></text>
<text
         xml:space="preserve"
         style="font-style:normal;font-variant:normal;font-weight:normal;font-stretch:normal;font-size:20px;line-height:125%;font-family:Times;-inkscape-font-specification:Times;letter-spacing:0px;word-spacing:0px;fill:#00008b;fill-opacity:1;stroke:none;stroke-width:1px;stroke-linecap:butt;stroke-linejoin:miter;stroke-opacity:1"
         x="62.306705"
         y="-343.98648"
         id="text6133-4"
         sodipodi:linespacing="125%"
         transform="scale(1,-1)"><tspan
           sodipodi:role="line"
           id="tspan6135-27"
           x="62.306705"
           y="-343.98648"
           style="font-size:25px;fill:#00008b;fill-opacity:1">D.GoS*</tspan></text>
<text
         xml:space="preserve"
         style="font-style:normal;font-variant:normal;font-weight:normal;font-stretch:normal;font-size:20px;line-height:125%;font-family:Times;-inkscape-font-specification:Times;letter-spacing:0px;word-spacing:0px;fill:#00008b;fill-opacity:1;stroke:none;stroke-width:1px;stroke-linecap:butt;stroke-linejoin:miter;stroke-opacity:1"
         x="314.25766"
         y="-146.09627"
         id="text6133-3"
         sodipodi:linespacing="125%"
         transform="scale(1,-1)"><tspan
           sodipodi:role="line"
           id="tspan6135-4"
           x="314.25766"
           y="-146.09627"
           style="font-size:25px;fill:#00008b;fill-opacity:1">D.GoS</tspan></text>
<text
         xml:space="preserve"
         style="font-style:normal;font-variant:normal;font-weight:normal;font-stretch:normal;font-size:25px;line-height:125%;font-family:Times;-inkscape-font-specification:Times;letter-spacing:0px;word-spacing:0px;fill:#00008b;fill-opacity:1;stroke:none;stroke-width:1px;stroke-linecap:butt;stroke-linejoin:miter;stroke-opacity:1"
         x="490.7677"
         y="-348.28671"
         id="text6195"
         sodipodi:linespacing="125%"
         transform="scale(1,-1)"><tspan
           sodipodi:role="line"
           id="tspan6197"
           x="490.7677"
           y="-348.28671">D.Age*</tspan></text>
<text
         xml:space="preserve"
         style="font-style:normal;font-variant:normal;font-weight:normal;font-stretch:normal;font-size:25px;line-height:125%;font-family:Times;-inkscape-font-specification:Times;letter-spacing:0px;word-spacing:0px;fill:#00008b;fill-opacity:1;stroke:none;stroke-width:1px;stroke-linecap:butt;stroke-linejoin:miter;stroke-opacity:1"
         x="980.58472"
         y="-18.021706"
         id="text6195-2"
         sodipodi:linespacing="125%"
         transform="scale(1,-1)"><tspan
           sodipodi:role="line"
           id="tspan6197-6"
           x="980.58472"
           y="-18.021706">D.Age*</tspan></text>
<text
         xml:space="preserve"
         style="font-style:normal;font-variant:normal;font-weight:normal;font-stretch:normal;font-size:25px;line-height:125%;font-family:Times;-inkscape-font-specification:Times;letter-spacing:0px;word-spacing:0px;fill:#00008b;fill-opacity:1;stroke:none;stroke-width:1px;stroke-linecap:butt;stroke-linejoin:miter;stroke-opacity:1"
         x="985.00574"
         y="-453.38013"
         id="text6195-9"
         sodipodi:linespacing="125%"
         transform="scale(1,-1)"><tspan
           sodipodi:role="line"
           id="tspan6197-3"
           x="985.00574"
           y="-453.38013">D.Age*</tspan></text>
<text
         xml:space="preserve"
         style="font-style:normal;font-variant:normal;font-weight:normal;font-stretch:normal;font-size:25px;line-height:125%;font-family:Times;-inkscape-font-specification:Times;letter-spacing:0px;word-spacing:0px;fill:#00008b;fill-opacity:1;stroke:none;stroke-width:1px;stroke-linecap:butt;stroke-linejoin:miter;stroke-opacity:1"
         x="178.54047"
         y="-345.76163"
         id="text6195-7"
         sodipodi:linespacing="125%"
         transform="scale(1,-1)"><tspan
           sodipodi:role="line"
           id="tspan6197-4"
           x="178.54047"
           y="-345.76163">D.Age*</tspan></text>
<text
         xml:space="preserve"
         style="font-style:normal;font-variant:normal;font-weight:normal;font-stretch:normal;font-size:25px;line-height:125%;font-family:Times;-inkscape-font-specification:Times;letter-spacing:0px;word-spacing:0px;fill:#00008b;fill-opacity:1;stroke:none;stroke-width:1px;stroke-linecap:butt;stroke-linejoin:miter;stroke-opacity:1"
         x="70.038322"
         y="-149.17697"
         id="text6195-26"
         sodipodi:linespacing="125%"
         transform="scale(1,-1)"><tspan
           sodipodi:role="line"
           id="tspan6197-2"
           x="70.038322"
           y="-149.17697">D.Age</tspan></text>
<text
         xml:space="preserve"
         style="font-style:normal;font-variant:normal;font-weight:normal;font-stretch:normal;font-size:25px;line-height:125%;font-family:Times;-inkscape-font-specification:Times;letter-spacing:0px;word-spacing:0px;fill:#00008b;fill-opacity:1;stroke:none;stroke-width:1px;stroke-linecap:butt;stroke-linejoin:miter;stroke-opacity:1"
         x="1017.805"
         y="-135.61913"
         id="text6195-8"
         sodipodi:linespacing="125%"
         transform="scale(1,-1)"><tspan
           sodipodi:role="line"
           id="tspan6197-7"
           x="1017.805"
           y="-135.61913">D.Age*</tspan></text>
<text
         xml:space="preserve"
         style="font-style:normal;font-variant:normal;font-weight:normal;font-stretch:normal;font-size:25px;line-height:125%;font-family:Times;-inkscape-font-specification:Times;letter-spacing:0px;word-spacing:0px;fill:#00008b;fill-opacity:1;stroke:none;stroke-width:1px;stroke-linecap:butt;stroke-linejoin:miter;stroke-opacity:1"
         x="747.91644"
         y="-344.62494"
         id="text6195-79"
         sodipodi:linespacing="125%"
         transform="scale(1,-1)"><tspan
           sodipodi:role="line"
           id="tspan6197-27"
           x="747.91644"
           y="-344.62494">D.Age*</tspan></text>
<text
         xml:space="preserve"
         style="font-style:normal;font-variant:normal;font-weight:normal;font-stretch:normal;font-size:25px;line-height:125%;font-family:Times;-inkscape-font-specification:Times;letter-spacing:0px;word-spacing:0px;fill:#00008b;fill-opacity:1;stroke:none;stroke-width:1px;stroke-linecap:butt;stroke-linejoin:miter;stroke-opacity:1"
         x="1071.6985"
         y="-232.03758"
         id="text6195-2-8"
         sodipodi:linespacing="125%"
         transform="scale(1,-1)"><tspan
           sodipodi:role="line"
           id="tspan6197-6-4"
           x="1071.6985"
           y="-232.03758">D.Age*</tspan></text>
<text
         xml:space="preserve"
         style="font-style:normal;font-variant:normal;font-weight:normal;font-stretch:normal;font-size:25px;line-height:125%;font-family:Times;-inkscape-font-specification:Times;letter-spacing:0px;word-spacing:0px;fill:#00008b;fill-opacity:1;stroke:none;stroke-width:1px;stroke-linecap:butt;stroke-linejoin:miter;stroke-opacity:1"
         x="860.82239"
         y="-158.3121"
         id="text6275"
         sodipodi:linespacing="125%"
         transform="scale(1,-1)"><tspan
           sodipodi:role="line"
           id="tspan6277"
           x="860.82239"
           y="-158.3121">D.Gndr*</tspan></text>
<text
         xml:space="preserve"
         style="font-style:normal;font-variant:normal;font-weight:normal;font-stretch:normal;font-size:25px;line-height:125%;font-family:Times;-inkscape-font-specification:Times;letter-spacing:0px;word-spacing:0px;fill:#00008b;fill-opacity:1;stroke:none;stroke-width:1px;stroke-linecap:butt;stroke-linejoin:miter;stroke-opacity:1"
         x="1173.0272"
         y="-333.99429"
         id="text6275-8"
         sodipodi:linespacing="125%"
         transform="scale(1,-1)"><tspan
           sodipodi:role="line"
           id="tspan6277-2"
           x="1173.0272"
           y="-333.99429">D.Gndr*</tspan></text>
<text
         xml:space="preserve"
         style="font-style:normal;font-variant:normal;font-weight:normal;font-stretch:normal;font-size:25px;line-height:125%;font-family:Times;-inkscape-font-specification:Times;letter-spacing:0px;word-spacing:0px;fill:#00008b;fill-opacity:1;stroke:none;stroke-width:1px;stroke-linecap:butt;stroke-linejoin:miter;stroke-opacity:1"
         x="1173.3219"
         y="-140.52522"
         id="text6275-2"
         sodipodi:linespacing="125%"
         transform="scale(1,-1)"><tspan
           sodipodi:role="line"
           id="tspan6277-6"
           x="1173.3219"
           y="-140.52522">D.Gndr*</tspan></text>
<text
         xml:space="preserve"
         style="font-style:normal;font-variant:normal;font-weight:normal;font-stretch:normal;font-size:25px;line-height:125%;font-family:Times;-inkscape-font-specification:Times;letter-spacing:0px;word-spacing:0px;fill:#00008b;fill-opacity:1;stroke:none;stroke-width:1px;stroke-linecap:butt;stroke-linejoin:miter;stroke-opacity:1"
         x="849.32941"
         y="-378.66684"
         id="text6275-6"
         sodipodi:linespacing="125%"
         transform="scale(1,-1)"><tspan
           sodipodi:role="line"
           id="tspan6277-0"
           x="849.32941"
           y="-378.66684">D.Gndr*</tspan></text>
<text
         xml:space="preserve"
         style="font-style:normal;font-variant:normal;font-weight:normal;font-stretch:normal;font-size:25px;line-height:125%;font-family:Times;-inkscape-font-specification:Times;letter-spacing:0px;word-spacing:0px;fill:#00008b;fill-opacity:1;stroke:none;stroke-width:1px;stroke-linecap:butt;stroke-linejoin:miter;stroke-opacity:1"
         x="743.31085"
         y="-134.1252"
         id="text6275-7"
         sodipodi:linespacing="125%"
         transform="scale(1,-1)"><tspan
           sodipodi:role="line"
           id="tspan6277-8"
           x="743.31085"
           y="-134.1252">D.Gndr</tspan></text>
<text
         xml:space="preserve"
         style="font-style:normal;font-variant:normal;font-weight:normal;font-stretch:normal;font-size:25px;line-height:125%;font-family:Times;-inkscape-font-specification:Times;letter-spacing:0px;word-spacing:0px;fill:#00008b;fill-opacity:1;stroke:none;stroke-width:1px;stroke-linecap:butt;stroke-linejoin:miter;stroke-opacity:1"
         x="614.21747"
         y="-217.30028"
         id="text6321"
         sodipodi:linespacing="125%"
         transform="scale(1,-1)"><tspan
           sodipodi:role="line"
           id="tspan6323"
           x="614.21747"
           y="-217.30028">D.RelGndr</tspan></text>
<text
         xml:space="preserve"
         style="font-style:normal;font-variant:normal;font-weight:normal;font-stretch:normal;font-size:25px;line-height:125%;font-family:Times;-inkscape-font-specification:Times;letter-spacing:0px;word-spacing:0px;fill:#00008b;fill-opacity:1;stroke:none;stroke-width:1px;stroke-linecap:butt;stroke-linejoin:miter;stroke-opacity:1"
         x="1061.0719"
         y="-300.35297"
         id="text6275-2-4"
         sodipodi:linespacing="125%"
         transform="scale(1,-1)"><tspan
           sodipodi:role="line"
           id="tspan6277-6-3"
           x="1061.0719"
           y="-300.35297">D.Gndr*</tspan></text>
</g></g></svg>